<svg xmlns="http://www.w3.org/2000/svg" width="429" height="286" viewBox="0 0 429 286">
    <g data-name="7" transform="translate(-.073 -.126)">
        <path data-name="Path 3" d="M677.98 454.427c21.211-42.053-3.182-102.592-59.949-82.461-66.241 23.491-72.263 12.1-87.413 1.453-30.273-21.268-126.894-21.79-143.975 32.118-20.045 63.26 41.373 74.716 9.782 84.425-45.12 13.868-51.892 74.117-7.365 80.345l277.152-.436s43.721-14.364 27.967-54.361c-11.309-28.71-37.418-19.029-16.199-61.083z" transform="translate(-326.043 -326.956)" style="fill:#e9d9ca"/>
        <path data-name="Path 4" d="M3647.368 1752.716c-26.964-12.686-46.928 76.976-46.928 76.976l10.535 5.52s63.35-69.812 36.393-82.496z" transform="translate(-3270.204 -1590.794)" style="fill:#00988e"/>
        <path data-name="Path 5" d="M3711.727 1836.3c-1.8.722-3.583 1.478-5.359 2.253a934.45 934.45 0 0 0 5.727-11.573 858.815 858.815 0 0 0-6.2 11.4 142.718 142.718 0 0 0-1.311-4.9c-.536-1.909-1.1-3.812-1.733-5.7.306 1.965.692 3.911 1.1 5.851.389 1.946.846 3.874 1.305 5.8l.022.092-2.646 4.938-4.385 8.335a241.787 241.787 0 0 0-2.042-6.186c-.8-2.368-1.634-4.729-2.531-7.069a190.211 190.211 0 0 0 1.927 7.257c.652 2.373 1.356 4.73 2.077 7.081l-4.3 8.176-2.971 5.8a167.89 167.89 0 0 0-1.861-4.269c-.386-.84-.746-1.692-1.154-2.523s-.791-1.674-1.215-2.5c.275.886.583 1.758.879 2.635s.627 1.743.939 2.611c.607 1.686 1.25 3.359 1.909 5.024l-4.79 9.341a154.972 154.972 0 0 0-2.1-4.047c-.421-.778-.819-1.567-1.263-2.334s-.86-1.547-1.319-2.306c.314.825.662 1.643 1 2.462s.7 1.624 1.054 2.435c.69 1.588 1.41 3.159 2.147 4.723l-.328.642-4.012 7.96c-1.411-2.343-2.879-4.653-4.488-6.88 1.214 2.666 2.587 5.241 4.021 7.779l.008.013v.01l-4.388 8.922 4.776-8.72.092-.023q2.975-.74 5.918-1.605c.979-.294 1.958-.591 2.931-.91s1.943-.647 2.9-1.014c-1.017.152-2.018.35-3.027.541s-2 .421-3 .642q-2.644.615-5.261 1.325l4.135-7.724.343-.653a235.641 235.641 0 0 0 7.254-2.924c2.4-1.041 4.807-2.085 7.162-3.251-2.514.764-4.979 1.651-7.444 2.537a228.566 228.566 0 0 0-6.355 2.467l4.766-9.061q3.617-1.607 7.186-3.321c2.4-1.183 4.8-2.367 7.148-3.669-2.525.911-4.994 1.942-7.464 2.973-2.085.892-4.154 1.82-6.213 2.769l2.872-5.461 4.225-8.239q4.137-1.957 8.22-4.027c2.736-1.409 5.476-2.814 8.164-4.332-2.862 1.149-5.67 2.41-8.481 3.669q-3.638 1.665-7.24 3.406l4.187-8.164q1.263-2.5 2.515-5l.106-.046q3.1-1.338 6.158-2.775l3.043-1.468c1-.516 2.014-1.009 3-1.56-1.074.353-2.125.757-3.187 1.14z" transform="translate(-3338.323 -1659.362)" style="fill:#006d80"/>
        <path data-name="Path 6" d="m3620.39 2188.673 10.55 2.773s73.782-25.859 59.139-45.765-69.689 42.992-69.689 42.992z" transform="translate(-3288.323 -1945.29)" style="fill:#006d80"/>
        <path data-name="Path 7" d="M3783.825 2191.14q-2.4-.275-4.8-.476a766.418 766.418 0 0 0 8.75-6.175q-4.539 2.892-9.027 5.857c.345-1.358.684-2.718.98-4.088.367-1.6.708-3.211.988-4.838a96.912 96.912 0 0 0-1.511 4.7 129.681 129.681 0 0 0-1.342 4.745l-.02.076-3.88 2.555-6.492 4.344c.338-1.769.666-3.539.956-5.321.352-2.044.678-4.093.949-6.154a159.615 159.615 0 0 0-1.463 6.054 218.02 218.02 0 0 0-1.284 5.984l-6.367 4.259-4.458 3.054c.123-1.284.241-2.563.329-3.848.051-.765.126-1.528.156-2.293s.085-1.532.1-2.3c-.15.755-.27 1.513-.4 2.27s-.231 1.516-.348 2.274a145.923 145.923 0 0 0-.595 4.418l-7.184 4.917c.038-1.26.069-2.519.071-3.78 0-.734.022-1.468 0-2.2s-.016-1.468-.05-2.2c-.1.734-.167 1.459-.246 2.19s-.129 1.461-.194 2.191c-.125 1.43-.221 2.861-.3 4.292l-.494.338-6.066 4.22c-.1-2.266-.26-4.53-.551-6.789-.168 2.424-.183 4.844-.143 7.261v.013l-.007.006-6.725 4.77 6.928-4.471.076.019q2.462.638 4.954 1.169c.83.172 1.66.344 2.5.5s1.673.3 2.518.408c-.8-.291-1.612-.544-2.422-.8s-1.627-.484-2.443-.715q-2.169-.6-4.358-1.114l6.067-4 .508-.34c2.145.275 4.292.529 6.446.734 2.164.19 4.329.379 6.507.459-2.135-.437-4.283-.766-6.431-1.093-1.866-.269-3.736-.5-5.609-.714l7.055-4.722q3.272.259 6.552.419c2.218.086 4.436.172 6.662.149-2.2-.333-4.409-.558-6.617-.782a211.797 211.797 0 0 0-5.624-.437l4.253-2.844 6.335-4.337c2.527.138 5.055.238 7.585.313 2.552.054 5.1.112 7.663.068-2.541-.294-5.088-.485-7.633-.679q-3.311-.224-6.625-.379l6.28-4.3q1.909-1.323 3.811-2.652l.092.008c1.859.167 3.722.307 5.587.411l2.8.131c.936.019 1.87.058 2.807.05-.923-.166-1.849-.288-2.774-.427z" transform="translate(-3390.749 -1981.287)" style="fill:#00988e"/>
        <path data-name="Path 8" d="M3497.224 1880.115c-23.995-1.119-5.154 72.505-5.154 72.505l9.587.036s19.562-71.422-4.433-72.541z" transform="translate(-3165.388 -1707.611)" style="fill:#00988e"/>
        <path data-name="Path 9" d="M3531.66 1963.046c1.4-1.4 2.79-2.818 4.149-4.263a159.81 159.81 0 0 0 4.107-4.446c-1.521 1.33-3 2.7-4.467 4.084a185.963 185.963 0 0 0-3.786 3.639l.017-7.593q-.009-2.259-.026-4.516l.051-.058c1.054-1.2 2.11-2.4 3.119-3.642s2.029-2.471 2.989-3.757a89.76 89.76 0 0 0-3.382 3.406c-.949.979-1.867 1.986-2.78 3a744.183 744.183 0 0 0-.126-10.458 752.804 752.804 0 0 0-.28 10.406 151.238 151.238 0 0 0-2.97-3.625l-1.78-2.062c-.611-.673-1.209-1.358-1.841-2.014.5.762 1.034 1.5 1.553 2.243l1.615 2.194q1.634 2.18 3.343 4.3l.059.073-.092 4.512-.092 7.4q-1.912-2.6-3.876-5.156c-1.529-1.955-3.056-3.911-4.662-5.809 1.341 2.093 2.764 4.128 4.183 6.162q2.136 3.01 4.341 5.968l-.091 7.463-.011 4.975q-1.666-2.179-3.384-4.312c-1.376-1.665-2.744-3.331-4.2-4.932 1.181 1.813 2.446 3.561 3.711 5.309q1.893 2.569 3.869 5.075l-.018 8.256a181.988 181.988 0 0 0-3.6-4.152c-1.422-1.559-2.844-3.119-4.349-4.614 1.239 1.718 2.559 3.368 3.879 5.016a190.644 190.644 0 0 0 4.068 4.818v.6l.037 7.064q-1.6-1.49-3.25-2.926c-.626-.536-1.254-1.071-1.895-1.591s-1.284-1.035-1.954-1.527c.551.623 1.119 1.218 1.687 1.817s1.16 1.174 1.743 1.753q1.773 1.723 3.613 3.374l.057.051.117 8.014.236-8.012v-.008l.01-.006c1.979-1.269 3.927-2.586 5.8-4.028-1.986.981-3.9 2.074-5.792 3.211l.143-7.182.007-.58a133.78 133.78 0 0 0 3.31-2.557c.557-.446 1.125-.876 1.669-1.338s1.1-.905 1.639-1.376c-.613.367-1.208.762-1.809 1.147s-1.187.791-1.78 1.187a141.176 141.176 0 0 0-3.019 2.094l.106-8.462q1.646-1.406 3.254-2.861c.55-.5 1.115-.988 1.651-1.506s1.09-1.018 1.62-1.548c-.613.428-1.206.881-1.807 1.323s-1.181.91-1.773 1.364c-.993.763-1.966 1.549-2.936 2.34l.066-5.25z" transform="translate(-3199.414 -1760.597)" style="fill:#006d80"/>
        <path data-name="Path 10" d="M3199.543 2031.737c-17.937 8.668 24.9 54.9 24.9 54.9l7-3.761s-13.966-59.807-31.9-51.139z" transform="translate(-2902.097 -1844.556)" style="fill:#006d80"/>
        <path data-name="Path 11" d="m3251.095 2122.549.006-.009c.941-1.708 1.841-3.437 2.635-5.229-1.061 1.5-2.027 3.056-2.953 4.632l-2.734-5.292-.224-.427c.482-1.05.953-2.11 1.4-3.172.229-.545.474-1.083.688-1.635s.446-1.1.65-1.651c-.3.512-.58 1.033-.866 1.551s-.551 1.046-.826 1.569c-.473.9-.926 1.809-1.376 2.721l-3.267-6.211q.644-1.677 1.241-3.372c.2-.584.423-1.161.61-1.752s.393-1.173.569-1.768c-.275.551-.531 1.118-.794 1.679s-.5 1.13-.754 1.694c-.422.949-.82 1.907-1.216 2.867l-2.027-3.853-2.935-5.436c.465-1.577.917-3.158 1.339-4.748.44-1.614.862-3.233 1.238-4.862a129.611 129.611 0 0 0-1.643 4.743q-.688 2.064-1.322 4.149l-2.99-5.543-1.8-3.282.014-.062c.294-1.292.586-2.584.832-3.888s.5-2.6.695-3.92a76.508 76.508 0 0 0-1.119 3.821 92.877 92.877 0 0 0-.842 3.283 681.23 681.23 0 0 0-4.226-7.575q1.926 3.865 3.909 7.7c-1.192-.505-2.391-1-3.6-1.468l-2.11-.8c-.712-.25-1.417-.512-2.138-.741.665.359 1.345.683 2.018 1.022l2.045.961q2.051.944 4.136 1.813l.072.031 1.715 3.325 2.856 5.431q-2.42-1.139-4.862-2.226c-1.887-.821-3.773-1.645-5.7-2.393 1.806 1 3.647 1.916 5.487 2.844q2.747 1.348 5.523 2.635l2.88 5.479 1.959 3.631a163.587 163.587 0 0 0-4.173-1.808c-1.658-.673-3.317-1.344-5.011-1.937 1.577.855 3.191 1.63 4.8 2.4q2.4 1.125 4.827 2.17l3.249 6.024a167.148 167.148 0 0 0-4.266-1.605c-1.651-.576-3.309-1.151-5-1.645 1.582.763 3.2 1.445 4.811 2.125 1.612.664 3.237 1.295 4.87 1.906l.234.434 2.818 5.137q-1.756-.459-3.526-.85c-.669-.143-1.337-.284-2.01-.411s-1.348-.246-2.028-.34c.642.238 1.3.446 1.948.658s1.309.4 1.966.588q1.973.55 3.968 1.032l.061.015 3.254 5.8-3-5.934z" transform="translate(-2929.351 -1890.597)" style="fill:#00988e"/>
        <path data-name="Path 12" d="M637.708 1573.336c-40.81 2.258-1.678 96.414-1.678 96.414l13.326-1.468s29.162-97.204-11.648-94.946z" transform="translate(-562.381 -1428.951)" style="fill:#00988e"/>
        <path data-name="Path 13" d="M695.424 1658.734c-2.484 3.532-4.882 7.118-7.263 10.715-2.11 3.165-4.15 6.374-6.215 9.567l-1.108-17.9.008-.014c1.753-2.767 3.505-5.533 5.19-8.348s3.377-5.615 4.968-8.485c-1.937 2.649-3.783 5.355-5.614 8.073-1.589 2.336-3.125 4.707-4.657 7.08l-.039-.621c-.491-7.247-1-14.489-1.616-21.727.2 7.262.516 14.516.845 21.77l.024.474c-1.7-2.35-3.411-4.694-5.167-7l-3.1-4.055c-1.063-1.331-2.1-2.683-3.183-4 .9 1.448 1.852 2.858 2.777 4.289l2.865 4.22c1.915 2.814 3.889 5.585 5.871 8.348l.028.039.917 17.854-3.293-4.214c-1.434-1.814-2.838-3.652-4.3-5.447l-4.364-5.4c-1.482-1.778-2.936-3.578-4.444-5.333 1.321 1.9 2.7 3.761 4.043 5.643l4.128 5.576c1.37 1.864 2.8 3.685 4.19 5.53l4.116 5.38 1.148 18.531-2.856-3.46c-1.252-1.5-2.471-3.027-3.751-4.5l-3.805-4.456c-1.3-1.462-2.569-2.947-3.89-4.389 1.143 1.588 2.337 3.134 3.5 4.7l3.587 4.634c1.184 1.555 2.429 3.059 3.642 4.587l3.662 4.572.014.017.083 1.351.761 10.872c.289 3.62.543 7.242.862 10.861-.092-3.632-.247-7.259-.367-10.888l-.474-10.883-.07-1.352.01-.016 3.068-4.826c1.017-1.613 2.059-3.211 3.044-4.842 2-3.245 3.991-6.5 5.888-9.816-2.244 3.089-4.4 6.238-6.533 9.395-1.085 1.568-2.11 3.173-3.167 4.762l-2.4 3.641-.952-18.546c2.248-3.613 4.545-7.2 6.751-10.839 2.262-3.684 4.493-7.376 6.638-11.124z" transform="translate(-603.649 -1486.873)" style="fill:#006d80"/>
        <path data-name="Path 14" d="M996.191 1921.987c-26.656-11.359-31.291 60.776-31.291 60.776l8.931 3.246s49.016-52.663 22.36-64.022z" transform="translate(-876.437 -1744.552)" style="fill:#006d80"/>
        <path data-name="Path 15" d="M1041.305 1990.489c1.981-1.21 3.963-2.42 5.916-3.679s3.908-2.512 5.819-3.837c-2.061 1.077-4.084 2.219-6.1 3.373a247.918 247.918 0 0 0-5.18 3.042l.17-.407c1.959-4.76 3.907-9.526 5.779-14.321-2.147 4.679-4.22 9.391-6.287 14.106l-.133.309c-.345-2.027-.7-4.054-1.09-6.073l-.7-3.552c-.258-1.18-.491-2.363-.771-3.539.117 1.2.282 2.4.421 3.6l.5 3.584c.336 2.385.722 4.77 1.115 7.149l.005.034-5.015 11.638-.773-3.712c-.343-1.6-.66-3.211-1.025-4.811l-1.076-4.8c-.386-1.594-.747-3.194-1.154-4.785.244 1.624.535 3.237.8 4.856l.879 4.84c.287 1.615.622 3.219.931 4.829l.93 4.712-5.08 12.145-.734-3.1c-.326-1.346-.622-2.7-.973-4.036l-1.023-4.026c-.367-1.337-.709-2.679-1.1-4.01.229 1.368.5 2.724.754 4.088l.826 4.071c.265 1.36.585 2.706.876 4.059l.9 4.056v.015l-.367.886-2.925 7.145c-.951 2.392-1.927 4.775-2.857 7.176 1.081-2.337 2.119-4.692 3.18-7.038l3.109-7.068.381-.882.011-.007 3.463-2.11c1.152-.706 2.315-1.393 3.454-2.124 2.293-1.435 4.575-2.881 6.819-4.393-2.394 1.26-4.75 2.588-7.1 3.925-1.182.656-2.338 1.355-3.506 2.035l-2.66 1.564 5.211-12.094c2.563-1.593 5.146-3.152 7.69-4.775 2.584-1.636 5.159-3.285 7.7-4.995-2.686 1.468-5.334 3-7.976 4.536-2.334 1.351-4.637 2.752-6.952 4.135l4.908-11.733z" transform="translate(-929.716 -1793.494)" style="fill:#00988e"/>
        <path data-name="Path 16" d="M286.858 1911.8c-28.018 13.837 27.757 68.295 27.757 68.295l8.93-5.029s-8.669-77.105-36.687-63.266z" transform="translate(-253.446 -1734.888)" style="fill:#006d80"/>
        <path data-name="Path 17" d="m354.764 2017.136-.459-.93v-.015l.707-4.312c.232-1.438.485-2.873.688-4.317.434-2.883.856-5.767 1.193-8.666-.65 2.844-1.219 5.7-1.774 8.566-.293 1.428-.534 2.866-.8 4.3l-.592 3.28-6.238-12.76c.5-3.215 1.035-6.422 1.493-9.647.476-3.263.936-6.529 1.319-9.807-.686 3.228-1.3 6.47-1.89 9.714-.534 2.858-1.009 5.727-1.5 8.592l-6.144-12.258v-.012c.4-2.471.8-4.943 1.145-7.424s.69-4.962.947-7.458c-.566 2.444-1.052 4.9-1.524 7.362a270.19 270.19 0 0 0-1.15 6.376l-.214-.425c-2.517-4.949-5.05-9.885-7.655-14.793 2.322 5.045 4.719 10.052 7.128 15.054l.16.326a278.622 278.622 0 0 0-5.736-3.374l-3.394-1.927c-1.147-.617-2.279-1.258-3.437-1.855 1.067.749 2.16 1.454 3.239 2.182l3.283 2.11c2.191 1.4 4.41 2.76 6.633 4.109l.031.019 6 12.279-3.578-1.975c-1.553-.845-3.091-1.716-4.656-2.54l-4.684-2.491c-1.575-.8-3.138-1.633-4.725-2.416 1.5.94 3.027 1.835 4.536 2.752l4.579 2.681c1.523.9 3.071 1.752 4.606 2.63l4.509 2.548 6.367 12.693-3.047-1.576c-1.33-.678-2.645-1.385-3.988-2.039l-4.013-1.99c-1.351-.642-2.69-1.3-4.052-1.918 1.28.773 2.583 1.5 3.875 2.255l3.913 2.182c1.3.734 2.625 1.422 3.938 2.135l3.945 2.115.015.007.464.926 3.792 7.413c1.29 2.458 2.556 4.929 3.866 7.377-1.153-2.525-2.352-5.03-3.526-7.545z" transform="translate(-297.091 -1791.533)" style="fill:#00988e"/>
        <ellipse data-name="Ellipse 2" cx="161.569" cy="9.827" rx="161.569" ry="9.827" transform="translate(41.85 233.556)" style="fill:#cfa09a"/>
        <path data-name="Path 18" d="M238.928 40.418h-73.423a15.634 15.634 0 0 0-15.6 15.6v174.541a15.372 15.372 0 0 0 .77 4.823 15.65 15.65 0 0 0 14.826 10.773h73.423a15.651 15.651 0 0 0 14.826-10.773 15.372 15.372 0 0 0 .77-4.823V56.008a15.614 15.614 0 0 0-15.6-15.59z"/>
        <rect data-name="Rectangle 7" width="102.394" height="204.786" rx="51.197" transform="translate(147.071 40.94)" style="fill:#545454"/>
        <rect data-name="Rectangle 8" width="101.109" height="203.359" rx="50.555" transform="translate(147.713 41.579)" style="fill:#545454"/>
        <path data-name="Path 19" d="M1743.349 508.63h-12.416v1.1a6.1 6.1 0 0 1-6.1 6.1h-34.585a6.448 6.448 0 0 1-6.449-6.45v-.748h-10.875a10.628 10.628 0 0 0-10.627 10.628v171.9a10.622 10.622 0 0 0 10.627 10.629h70.421a10.628 10.628 0 0 0 10.628-10.628v-171.9a10.629 10.629 0 0 0-10.624-10.631z" transform="translate(-1509.86 -461.952)" style="fill:#91b3fa"/>
        <path data-name="Path 20" d="M203.905 46.459h-11.257a1.073 1.073 0 1 0 0 2.146h11.254a1.073 1.073 0 1 0 0-2.146z"/>
        <path data-name="Path 21" d="M187.278 45.99a1.376 1.376 0 1 0 .979.4 1.383 1.383 0 0 0-.979-.4z"/>
        <path data-name="Path 22" d="M187.278 46.621a.749.749 0 1 0 .53.219.751.751 0 0 0-.53-.219z"/>
        <path data-name="Path 23" d="M2741 894.52a1.074 1.074 0 0 0-1.074 1.072V910.8a1.073 1.073 0 0 0 2.146 0v-15.208a1.073 1.073 0 0 0-1.072-1.072z" transform="translate(-2488.633 -812.442)" style="fill:#545454"/>
        <path data-name="Path 24" d="M2741 1162a1.074 1.074 0 0 0-1.073 1.072v15.212a1.073 1.073 0 1 0 2.146 0v-15.21A1.073 1.073 0 0 0 2741 1162z" transform="translate(-2488.628 -1055.384)" style="fill:#545454"/>
        <path data-name="Rectangle 9" transform="translate(249.465 61.266)" style="fill:#545454" d="M0 0h5.059v2.515H0z"/>
        <path data-name="Rectangle 10" transform="translate(249.465 222.981)" style="fill:#1b29af" d="M0 0h5.059v2.515H0z"/>
        <path data-name="Path 25" d="m1662.3 910.708 91.677-52.3V838.13l-91.677 49.02z" transform="translate(-1509.86 -761.225)" style="fill:#9bb8f0"/>
        <path data-name="Path 26" d="M1662.3 1415.3a10.7 10.7 0 0 0 .161 1.85l91.516-52.21v-59.02l-91.677 49.021z" transform="translate(-1509.86 -1186.102)" style="fill:#96c0f0"/>
        <rect data-name="Rectangle 11" width="78.332" height="83.392" rx="39.166" transform="translate(159.21 58.207)" style="fill:#fff"/>
        <path data-name="Path 27" d="M1854.163 752.72h54.24a1.743 1.743 0 0 1 1.743 1.743v18.215a1.743 1.743 0 0 1-1.743 1.743h-54.24a1.743 1.743 0 0 1-1.743-1.743v-18.211a1.743 1.743 0 0 1 1.743-1.743z" transform="translate(-1682.539 -683.65)" style="fill:#ff8500"/>
        <path data-name="Rectangle 12" transform="translate(204.955 84.511)" style="fill:#fff" d="M0 0h4.665v3.063H0z"/>
        <path data-name="Rectangle 13" transform="translate(204.955 80.893)" style="fill:#fff" d="M0 0h4.665v3.063H0z"/>
        <path data-name="Rectangle 14" transform="translate(204.955 77.275)" style="fill:#fff" d="M0 0h4.665v3.063H0z"/>
        <path data-name="Rectangle 15" transform="translate(204.955 73.656)" style="fill:#fff" d="M0 0h4.665v3.063H0z"/>
        <path data-name="Rectangle 16" transform="translate(199.553 84.511)" style="fill:#fff" d="M0 0h4.665v3.063H0z"/>
        <path data-name="Rectangle 17" transform="translate(199.553 80.893)" style="fill:#fff" d="M0 0h4.665v3.063H0z"/>
        <path data-name="Rectangle 18" transform="translate(199.553 77.275)" style="fill:#fff" d="M0 0h4.665v3.063H0z"/>
        <path data-name="Rectangle 19" transform="translate(183.194 84.511)" style="fill:#fff" d="M0 0h4.665v3.063H0z"/>
        <path data-name="Rectangle 20" transform="translate(183.194 80.893)" style="fill:#fff" d="M0 0h4.665v3.063H0z"/>
        <path data-name="Rectangle 21" transform="translate(183.194 77.275)" style="fill:#fff" d="M0 0h4.665v3.063H0z"/>
        <path data-name="Rectangle 22" transform="translate(194.067 84.511)" style="fill:#fff" d="M0 0h4.665v3.063H0z"/>
        <path data-name="Rectangle 23" transform="translate(194.067 80.893)" style="fill:#fff" d="M0 0h4.665v3.063H0z"/>
        <path data-name="Rectangle 24" transform="translate(194.067 77.275)" style="fill:#fff" d="M0 0h4.665v3.063H0z"/>
        <path data-name="Rectangle 25" transform="translate(194.067 73.656)" style="fill:#fff" d="M0 0h4.665v3.063H0z"/>
        <path data-name="Rectangle 26" transform="translate(188.665 84.511)" style="fill:#fff" d="M0 0h4.665v3.063H0z"/>
        <path data-name="Rectangle 27" transform="translate(215.843 84.511)" style="fill:#fff" d="M0 0h4.665v3.063H0z"/>
        <path data-name="Rectangle 28" transform="translate(188.665 80.893)" style="fill:#fff" d="M0 0h4.665v3.063H0z"/>
        <path data-name="Rectangle 29" transform="translate(210.356 84.511)" style="fill:#fff" d="M0 0h4.665v3.063H0z"/>
        <path data-name="Rectangle 30" transform="translate(210.356 80.893)" style="fill:#fff" d="M0 0h4.665v3.063H0z"/>
        <path data-name="Rectangle 31" transform="translate(177.863 84.511)" style="fill:#fff" d="M0 0h4.665v3.063H0z"/>
        <path data-name="Rectangle 32" transform="translate(177.863 80.893)" style="fill:#fff" d="M0 0h4.665v3.063H0z"/>
        <circle data-name="Ellipse 3" cx="9.689" cy="9.689" r="9.689" transform="rotate(-9.22 714.83 -1005.548)" style="fill:#19c0e7"/>
        <path data-name="Path 28" d="M2015.24 1135.508a4.257 4.257 0 0 1 .929 2.591h4.519a8.767 8.767 0 0 0-2.158-5.7z" transform="translate(-1830.423 -1028.5)" style="fill:#1999c0"/>
        <path data-name="Path 29" d="M1980.825 1103.922a4.258 4.258 0 0 1 2.339.869l3.3-3.124a8.762 8.762 0 0 0-5.706-2.267z" transform="translate(-1799.106 -998.527)" style="fill:#1999c0"/>
        <path data-name="Path 30" d="m1913 1102.16 3.242 3.16a4.276 4.276 0 0 1 1.973-.949l-.061-4.551a8.765 8.765 0 0 0-5.154 2.34z" transform="translate(-1737.562 -998.908)" style="fill:#1999c0"/>
        <path data-name="Path 31" d="M1882.72 1139.326h4.521a4.268 4.268 0 0 1 .787-2.4l-3.254-3.173a8.765 8.765 0 0 0-2.054 5.573z" transform="translate(-1710.06 -1029.726)" style="fill:#1999c0"/>
        <path data-name="Path 32" d="m1921.615 1172.063-5.179-1.757a.523.523 0 1 0-.335.99l5.177 1.756a.522.522 0 1 0 .336-.989z" transform="translate(-1740.039 -1062.897)" style="fill:#312a52"/>
        <circle data-name="Ellipse 4" cx="9.689" cy="9.689" r="9.689" transform="rotate(-45 232.822 -188.007)" style="fill:#19c0e7"/>
        <path data-name="Path 33" d="M2379 1135.508a4.259 4.259 0 0 1 .928 2.591h4.519a8.761 8.761 0 0 0-2.158-5.7z" transform="translate(-2160.813 -1028.5)" style="fill:#1999c0"/>
        <path data-name="Path 34" d="M2344.615 1103.922a4.252 4.252 0 0 1 2.338.869l3.3-3.124a8.762 8.762 0 0 0-5.706-2.267z" transform="translate(-2129.524 -998.527)" style="fill:#1999c0"/>
        <path data-name="Path 35" d="m2276.83 1102.16 3.242 3.16a4.275 4.275 0 0 1 1.973-.949l-.062-4.551a8.765 8.765 0 0 0-5.153 2.34z" transform="translate(-2068.016 -998.908)" style="fill:#1999c0"/>
        <path data-name="Path 36" d="M2246.52 1139.326h4.518a4.26 4.26 0 0 1 .787-2.4l-3.255-3.173a8.76 8.76 0 0 0-2.05 5.573z" transform="translate(-2040.487 -1029.726)" style="fill:#1999c0"/>
        <path data-name="Path 37" d="M2339.429 1131.123a.524.524 0 0 0-.672.305l-1.918 5.121a.522.522 0 1 0 .978.367l1.918-5.12a.524.524 0 0 0-.306-.673z" transform="translate(-2122.49 -1027.31)" style="fill:#312a52"/>
        <path data-name="Path 38" d="M2148.528 1113.08a1.2 1.2 0 1 0 1.2 1.2 1.2 1.2 0 0 0-1.2-1.2z" transform="translate(-1950.396 -1010.952)" style="fill:#19c0e7"/>
        <path data-name="Path 39" d="M2148.528 1157.76a1.2 1.2 0 1 0 1.2 1.2 1.2 1.2 0 0 0-1.2-1.2z" transform="translate(-1950.396 -1051.533)" style="fill:#19c0e7"/>
        <path data-name="Path 40" d="M2148.528 1202.43a1.2 1.2 0 1 0 1.2 1.2 1.2 1.2 0 0 0-1.2-1.2z" transform="translate(-1950.396 -1092.105)" style="fill:#19c0e7"/>
        <path data-name="Path 41" d="M2148.528 1247.11a1.2 1.2 0 1 0 1.2 1.2 1.2 1.2 0 0 0-1.2-1.2z" transform="translate(-1950.396 -1132.686)" style="fill:#19c0e7"/>
        <path data-name="Path 42" d="M2376.341 1367.61a2.98 2.98 0 0 0-2.98 2.98 2.981 2.981 0 1 0 5.963 0 2.98 2.98 0 0 0-2.983-2.98z" transform="translate(-2155.691 -1242.132)" style="fill:#19c0e7"/>
        <path data-name="Path 43" d="M2278.27 1367.61a2.98 2.98 0 0 0-2.98 2.98 2.981 2.981 0 0 0 5.963 0 2.981 2.981 0 0 0-2.983-2.98z" transform="translate(-2066.617 -1242.132)" style="fill:#19c0e7"/>
        <path data-name="Path 44" d="M2180.2 1367.61a2.98 2.98 0 0 0-2.98 2.98 2.98 2.98 0 0 0 2.98 2.98 2.981 2.981 0 0 0 2.98-2.98 2.98 2.98 0 0 0-2.98-2.98z" transform="translate(-1977.544 -1242.132)" style="fill:#1999c0"/>
        <path data-name="Path 45" d="M2082.13 1367.61a2.98 2.98 0 0 0-2.98 2.98 2.981 2.981 0 0 0 5.963 0 2.981 2.981 0 0 0-2.983-2.98z" transform="translate(-1888.47 -1242.132)" style="fill:#19c0e7"/>
        <path data-name="Path 46" d="M1984.06 1367.61a2.98 2.98 0 0 0-2.98 2.98 2.979 2.979 0 0 0 2.98 2.98 2.98 2.98 0 0 0 2.98-2.98 2.98 2.98 0 0 0-2.98-2.98z" transform="translate(-1799.397 -1242.132)" style="fill:#19c0e7"/>
        <path data-name="Path 47" d="M1885.981 1367.61a2.98 2.98 0 0 0-2.981 2.98 2.981 2.981 0 1 0 5.963 0 2.98 2.98 0 0 0-2.982-2.98z" transform="translate(-1710.314 -1242.132)" style="fill:#1999c0"/>
        <path data-name="Rectangle 33" transform="translate(192.581 183.002)" style="fill:#fff" d="M0 0h1.284v18.476H0z"/>
        <path data-name="Path 48" d="M1906.654 1704.82h-27.789a13.4 13.4 0 1 0 0 26.809h27.789a13.4 13.4 0 1 0 0-26.809z" transform="translate(-1694.383 -1548.408)" style="fill:#9a60a6"/>
        <rect data-name="Rectangle 34" width="30.159" height="14.809" rx="7.404" transform="translate(177.219 201.479)" style="fill:#992e2e"/>
        <path data-name="Rectangle 35" transform="translate(183.674 205.392)" style="fill:#fbffff" d="M0 0h17.508v2.006H0z"/>
        <path data-name="Rectangle 36" transform="translate(183.674 209.586)" style="fill:#fbffff" d="M0 0h17.508v2.006H0z"/>
        <path data-name="Rectangle 37" transform="translate(182.902 165.881)" style="fill:#fff" d="M0 0h22.08v7.521H0z"/>
        <path data-name="Rectangle 38" transform="translate(206.34 165.881)" style="fill:#fff" d="M0 0h2.307v7.521H0z"/>
        <path data-name="Rectangle 39" transform="translate(209.803 165.881)" style="fill:#fff" d="M0 0h2.307v7.521H0z"/>
        <path data-name="Rectangle 40" transform="translate(213.266 165.881)" style="fill:#fff" d="M0 0h2.307v7.521H0z"/>
        <path data-name="Rectangle 41" transform="translate(216.729 165.881)" style="fill:#fff" d="M0 0h2.307v7.521H0z"/>
        <path data-name="Path 49" d="M1940.512 1766.684v-18.5l-9.252 9.252z" transform="translate(-1754.147 -1587.791)" style="fill:#fff"/>
        <path data-name="Path 50" d="M672.573 2391.247s-.834 3.865 1.935 4.967a4.708 4.708 0 0 0 4.616-.359l6.643-7.038-7.817-5.688z" transform="translate(-610.82 -2164.493)" style="fill:#fbc5a9"/>
        <path data-name="Path 51" d="M630.653 2473.279a11.581 11.581 0 0 1-4.271-3.227c-.662-.888-1.689-4.382-2.132-5.963a.9.9 0 0 0-.979-.652c-1.839.236-6.437.367-7.54-4.012a.642.642 0 0 0-1.071-.284l-4.434 4.469-.164.164a1.238 1.238 0 0 0-.016 1.726l10.617 11.122 12.049-.016a1.91 1.91 0 0 0-.072-1.479 4.044 4.044 0 0 0-1.987-1.848z" transform="translate(-553.826 -2233.361)" style="fill:#ffd900"/>
        <path data-name="Path 52" d="M621.266 2520.8c-1.053-.105-8.922-8.745-11.039-11.087l-.164.164a1.238 1.238 0 0 0-.016 1.726l10.617 11.122 12.049-.016a1.911 1.911 0 0 0-.072-1.479c-3.214-.104-10.433-.34-11.375-.43z" transform="translate(-553.826 -2279.461)" style="fill:#ff9500"/>
        <path data-name="Path 53" d="M743.488 2558.081a5.252 5.252 0 0 0-4.535.23c-.05.033 0 .1.047.1a20.853 20.853 0 0 1 4.45-.144.094.094 0 0 0 .039-.183z" transform="translate(-671.197 -2323.031)" style="fill:#fff"/>
        <path data-name="Path 54" d="M753.768 2567.031a5.251 5.251 0 0 0-4.535.23c-.05.033 0 .1.047.1a20.853 20.853 0 0 1 4.45-.144.094.094 0 1 0 .039-.183z" transform="translate(-680.534 -2331.159)" style="fill:#fff"/>
        <path data-name="Path 55" d="M764.048 2575.941a5.249 5.249 0 0 0-4.535.231c-.05.032 0 .1.047.1a20.909 20.909 0 0 1 4.451-.144.094.094 0 0 0 .038-.184z" transform="translate(-689.871 -2339.252)" style="fill:#fff"/>
        <path data-name="Path 56" d="M774.328 2584.871a5.249 5.249 0 0 0-4.535.231c-.05.032 0 .1.047.1a20.878 20.878 0 0 1 4.451-.145.094.094 0 0 0 .038-.184z" transform="translate(-699.208 -2347.364)" style="fill:#fff"/>
        <path data-name="Path 57" d="M1334.88 2469.6h8.074l1.708-11.826h-9.352z" transform="translate(-1212.476 -2232.286)" style="fill:#ffc9ae"/>
        <path data-name="Path 58" d="M1333.816 2560.606c-.991-1.468-8.348-3.7-10.63-4.691a9.8 9.8 0 0 1-2.577-1.755 1.2 1.2 0 0 0-1.565-.059 6.594 6.594 0 0 1-7.758.07.875.875 0 0 0-1.342.55l-1.144 6.16-.3 1.6a.359.359 0 0 0 .351.433l24.752.007a.357.357 0 0 0 .359-.323 8.521 8.521 0 0 0 .032-1.218 1.667 1.667 0 0 0-.178-.774z" transform="translate(-1188.512 -2319.543)" style="fill:#ffd900"/>
        <path data-name="Path 59" d="M1329.109 2631.495c-2.487.233-16.673-.684-20.309-.925l-.3 1.6a.359.359 0 0 0 .351.433l24.752.007a.356.356 0 0 0 .359-.323 8.553 8.553 0 0 0 .032-1.218 247.54 247.54 0 0 0-4.885.426z" transform="translate(-1188.512 -2389.234)" style="fill:#ff9500"/>
        <path data-name="Path 60" d="M1459.589 2580.407a5.253 5.253 0 0 0-4.326 1.382c-.04.045.023.1.07.082a20.911 20.911 0 0 1 4.267-1.276.094.094 0 1 0-.01-.187z" transform="translate(-1321.804 -2343.645)" style="fill:#fff"/>
        <path data-name="Path 61" d="M1471.81 2586.417a5.25 5.25 0 0 0-4.326 1.382c-.041.044.024.1.07.082a20.83 20.83 0 0 1 4.267-1.276.094.094 0 0 0-.01-.187z" transform="translate(-1332.904 -2349.103)" style="fill:#fff"/>
        <path data-name="Path 62" d="M1484.04 2592.426a5.25 5.25 0 0 0-4.326 1.382c-.04.044.024.1.07.082a20.845 20.845 0 0 1 4.267-1.276.094.094 0 0 0-.01-.187z" transform="translate(-1344.012 -2354.562)" style="fill:#fff"/>
        <path data-name="Path 63" d="M1496.25 2598.434a5.248 5.248 0 0 0-4.326 1.382c-.04.044.024.1.071.082a20.837 20.837 0 0 1 4.266-1.276.094.094 0 0 0-.01-.187z" transform="translate(-1355.102 -2360.018)" style="fill:#fff"/>
        <path data-name="Path 64" d="m1224.7 1342.1-21.882.3 9.133 58.619-2.391 53.279c5.478 1.354 14.545.351 20-1.056 0 0 4.686-43.247 3.954-58.452-.659-13.69-8.814-52.69-8.814-52.69z" transform="translate(-1092.531 -1218.963)" style="fill:#303030"/>
        <path data-name="Path 65" d="m652.759 1375.35-30.559 40.632c3.362 4.141 12.439 11.44 18.785 14.384 0 0 31.755-38.9 34.924-51.343 3.961-15.548 11.969-59.787 11.969-59.787l-29.288-1.926z" transform="translate(-565.175 -1196.447)" style="fill:#303030"/>
        <path data-name="Path 66" d="m128.783 171.656-.275-1.965-.285-1.964-.573-3.928-.585-3.926q-.292-1.963-.595-3.925-.6-3.925-1.235-7.845.432 3.945.906 7.889.231 1.971.475 3.945l.485 3.945.5 3.939.249 1.969.256 1.969c.341 2.61.673 5.222 1.028 7.83v.042l-.005-.042-.467 5.586-.451 5.628c-.3 3.752-.583 7.506-.869 11.259s-.55 7.509-.8 11.265-.5 7.512-.7 11.271c.406-3.743.772-7.489 1.132-11.237s.7-7.5 1.038-11.245.66-7.5.967-11.251l.467-5.626.448-5.628v-.042l-.005-.04c-.355-2.63-.735-5.249-1.106-7.873z"/>
        <path data-name="Path 67" d="M129.132 179.546v.04l.006.042z"/>
        <path data-name="Path 68" d="m104.201 185.738-.047.053-.026.065z"/>
        <path data-name="Path 69" d="M111.406 167.467c-1.232 3.058-2.443 6.123-3.659 9.187l-1.814 4.6-1.774 4.537.047-.053-.072.118.026-.065-7.12 8-3.568 4.036q-1.785 2.018-3.561 4.044l-3.552 4.053-3.539 4.064c-2.351 2.717-4.705 5.432-7.03 8.173 2.46-2.62 4.891-5.266 7.325-7.909l3.637-3.977 3.624-3.987q1.815-1.993 3.616-4l3.609-4 7.187-8.031.047-.052.026-.065 1.791-4.61 1.784-4.611c1.182-3.078 2.37-6.153 3.536-9.236s2.335-6.166 3.492-9.252 2.3-6.178 3.424-9.279c-1.277 3.04-2.526 6.091-3.772 9.143s-2.484 6.114-3.71 9.172z"/>
        <path data-name="Path 70" d="M126.511 147.743a46.663 46.663 0 0 0-7.626 1.411.076.076 0 1 0 .038.147c2.553-.4 5.144-.742 7.663-1.271.196-.042.119-.3-.075-.287z"/>
        <path data-name="Path 71" d="M126.056 132.498a70.86 70.86 0 0 1-.358 7.119c-.1 1.1-.981 7.163-2.885 6.721-.318-.074-.481-.388-.531-.868a7.666 7.666 0 0 1 .253-1.86c.211-1.27.381-2.543.49-3.826a34.733 34.733 0 0 0-.078-7.175.061.061 0 0 0-.122.006 66.255 66.255 0 0 1-.58 9.907c-.239 1.577-1.033 3.952.617 4.2 1.681.248 2.768-3.731 2.972-4.819a36.32 36.32 0 0 0 .355-9.388c-.004-.081-.134-.097-.133-.017z"/>
        <path data-name="Path 72" d="M122.864 146.5a10.107 10.107 0 0 0-.428 1.258 2.84 2.84 0 0 0-.178 1.033c.007.067.092.073.132.029a3.634 3.634 0 0 0 .442-1.009c.144-.388.3-.774.431-1.167a.212.212 0 0 0-.399-.144z"/>
        <path data-name="Path 73" d="M109.45 128.214a11.805 11.805 0 0 1-.577 1.23c-.159.34-.314.682-.468 1.025q-.478 1.06-.935 2.127a7.71 7.71 0 0 1-2.11 3.272 8 8 0 0 1-3.249 1.368 31.19 31.19 0 0 1-1.841.341c-.763.121-1.564.183-2.313.374a.1.1 0 0 0 .022.2 12.258 12.258 0 0 0 2.2-.016 24.77 24.77 0 0 0 1.743-.148 6.774 6.774 0 0 0 5.165-2.776 14.582 14.582 0 0 0 1.3-3.22c.2-.607.387-1.222.577-1.835.106-.343.2-.688.308-1.031a9.112 9.112 0 0 1 .26-.886c.04-.053-.063-.085-.082-.025z"/>
        <path data-name="Path 74" d="M1780.089 714.938c-.471-.359-8.371.474-10.139 1.439a37.361 37.361 0 0 0-5.309 4.67c-.612.613-2.392 2.545-2.392 2.545a25.193 25.193 0 0 0 2.538 3.833 29 29 0 0 0 2.817 2.614 2.951 2.951 0 0 0 3.1-.6 8.14 8.14 0 0 0 1.7-1.865 1.1 1.1 0 0 0 .254 1.266c.682.892 2.176-1.151 2.518-2.088a4.638 4.638 0 0 0-.138-2.418 2.634 2.634 0 0 0-.1-3.087s1.009-.306.944-1.141-2.23-1.7-2.23-1.7 5.542-1.638 6.214-1.87a.974.974 0 0 0 .223-1.598z" transform="translate(-1600.641 -649.257)" style="fill:#fbc5a9"/>
        <path data-name="Path 75" d="M1832.741 715.78c-.347 1.81-4.915 1.865-8.174 2.713s-4.347 2.426-4.347 2.426 3.578-1.764 6.078-1.669c0 0 5.542-1.638 6.214-1.87a.974.974 0 0 0 .229-1.6z" transform="translate(-1653.293 -650.099)" style="fill:#f7a18a"/>
        <path data-name="Path 76" d="M1818.769 789.452c-.62.009-.657-1.551.275-2.2a10.6 10.6 0 0 0 2.066-2.711s-1.629.116-3.258 2.4-4.763 1.435-4.763 1.435a6.048 6.048 0 0 0 3.846.55c.867-.226.367 2.018 1.483 1.677 1.944-.594 2.791-2.973 2.791-2.973-1.202 1.752-1.824 1.814-2.44 1.822z" transform="translate(-1646.818 -712.551)" style="fill:#f7a18a"/>
        <path data-name="Path 77" d="M1290.61 1317.1c.311 1.009 6.835 8.741 16.7 9.515-.156-4.312-1.591-14.769-1.591-14.769z" transform="translate(-1172.268 -1191.488)" style="fill:#e84b4b"/>
        <path data-name="Path 78" d="M1318.182 741.409s-7.857-16.858-11.015-19.948-12.426-3.559-12.426-3.559a5.427 5.427 0 0 0-.806-1.613c-.672-1.007-3.223-1.209-3.223-1.209l-.336 4.164c-1.881 1.613-.873 4.166-.873 4.166 2.018 7.522-.143 51.67-.143 51.67 6.044 4.1 15.268-1.266 15.268-1.266l-.057-6.475-.1-11.093v-2.009c.026.25.06.5.1.734 0 0 9.22 11.118 16.537 8.268a7.811 7.811 0 0 0 1.683-.957c5.518-3.98 13.292-16.741 17.063-23.3a19.3 19.3 0 0 1 2.236-3.982c-.2-1.545-9.749-11.592-9.749-11.592z" transform="translate(-1171.017 -649.463)" style="fill:#e84b4b"/>
        <path data-name="Path 79" d="m853.98 733.631-4.54-.317-1.671-.117s1.251-11.7.722-18.876-.674-8.524-.674-8.524l-.385-7.416s-4.527-1.155-5.393-.626-2.312 3.081-2.312 3.081-9.053-2.119-13.2 3.468c-2.878 3.883-9.095 15.2-12.869 24.966a.1.1 0 0 1-.01.027 43.711 43.711 0 0 0-3.06 11.172c-.514 6.577.016 12.461 8.234 14.014a25.741 25.741 0 0 0 8.185.4 9.034 9.034 0 0 0 1.976-.449l.289 3.853a43.967 43.967 0 0 0 15.266-2.5s1.3-5.152 1.54-7.271c0 0 2.713-1.134 5.38-2.3 2.06-.9 4.1-1.835 4.829-2.271a33.744 33.744 0 0 0-.763-5.831 13.8 13.8 0 0 0-1.544-4.483z" transform="translate(-736.158 -633.601)" style="fill:#e84b4b"/>
        <path data-name="Path 80" d="m1058.714 928.11-.854 15.5c3.188-1.316 14.619-1.064 14.619-1.064s-9.7-1.846-10.6-2.816-3.165-11.62-3.165-11.62z" transform="translate(-960.869 -842.95)" style="fill:#c62310"/>
        <path data-name="Path 81" d="m922.985 866.46 7.349-22.25s-8.745 10.822-7.349 22.25z" transform="translate(-838.23 -766.747)" style="fill:#c62310"/>
        <path data-name="Path 82" d="M1127.551 732.72c-1.468 7.644 5.5 12.818 5.656 12.87s2.434-7.91 2.434-7.91l-3.69 4.666a12.751 12.751 0 0 1-4.4-9.626z" transform="translate(-1023.983 -665.485)" style="fill:#c62310"/>
        <path data-name="Path 83" d="m1571.912 823.861-3.322 4.862c.236-.265 15.788-17.77 17.332-16.7s8.491 3.915 8.491 3.915c-.2-1.545-8.329-10.075-8.329-10.075z" transform="translate(-1424.747 -731.915)" style="fill:#c62310"/>
        <path data-name="Path 84" d="M1471.581 897.54c-6.59-.754-11.031-8.77-11.784-14.225s-3.481-19.454-3.481-19.454l-.866 25.513c.026.25.06.5.1.734 0 0 9.22 11.118 16.537 8.268a7.814 7.814 0 0 0 1.683-.957 6.931 6.931 0 0 1-2.189.121z" transform="translate(-1321.986 -784.594)" style="fill:#c62310"/>
        <path data-name="Path 85" d="m1304.449 752.49-2.759-5.307 1.967 7.188c6.932-2.425 2.4-8.531 2.4-8.531 2.199 5.082-1.608 6.65-1.608 6.65z" transform="translate(-1182.331 -677.401)" style="fill:#c62310"/>
        <path data-name="Path 86" d="M982.3 1317.791c.054.451 5.206-1.617 10.509-4.234 6.593-3.254 7.637-8.651 7.816-9.4l-15.555-2.779z" transform="translate(-892.241 -1181.978)" style="fill:#e84b4b"/>
        <path data-name="Path 87" d="M1213.935 713.367s.144 1.348.674 8.523a91.387 91.387 0 0 1-.1 11.138c-.252 4.3-.62 7.739-.62 7.739l1.672.117 4.54.317a11.262 11.262 0 0 1 1.116 2.711c.177-4.878.314-10.049.333-14.7.026-6.389-.169-11.793-.786-14.1 0 0-1.009-2.552.873-4.164l.336-4.165-8.422-.838z" transform="translate(-1102.277 -641.17)" style="fill:#fff"/>
        <path data-name="Path 88" d="M1224.891 959.54a11.674 11.674 0 0 1-7.041 3.814c-.252 4.3-.62 7.739-.62 7.739l1.672.117 4.54.317a11.268 11.268 0 0 1 1.116 2.711c.556-4.106.313-10.049.333-14.698z" transform="translate(-1105.619 -871.497)" style="fill:#d1d3d4"/>
        <path data-name="Path 89" d="m1182.84 1220.916 10 .692.423-11.538-8.954 3.884z" transform="translate(-1074.384 -1099.045)" style="fill:#d1d3d4"/>
        <path data-name="Path 90" d="M1185.68 630.352a5.561 5.561 0 0 0 5.558 5.562h.128a5.564 5.564 0 0 0 5.562-5.562V619.83l-9.237 2.66z" transform="translate(-1076.963 -562.951)" style="fill:#fbc5a9"/>
        <path data-name="Path 91" d="M817.8 1063.652c-5.9-4.021-4.723-19.142-4.15-20.732a43.713 43.713 0 0 0-3.06 11.172c-.514 6.577.017 12.461 8.234 14.014a25.741 25.741 0 0 0 8.185.4 9.032 9.032 0 0 0 1.976-.449l.289 3.853a43.966 43.966 0 0 0 15.266-2.5s1.3-5.152 1.54-7.271c0 0 2.713-1.134 5.38-2.3.003-.005-27.727 7.861-33.66 3.813z" transform="translate(-736.157 -947.228)" style="fill:#c62310"/>
        <path data-name="Path 92" d="M1010.66 1262.26a47.031 47.031 0 0 0 15.724-2.58s1.3-5.152 1.54-7.271c0 0-12.149 5.313-17.095 5.924z" transform="translate(-917.999 -1137.5)" style="fill:#e84b4b"/>
        <path data-name="Path 93" d="m1365.952 907.793-20.079-6.211a4.239 4.239 0 0 0-5.3 2.8l-4.934 15.954a4.24 4.24 0 0 0 2.8 5.3l20.079 6.21a4.24 4.24 0 0 0 5.3-2.8l4.936-15.952a4.24 4.24 0 0 0-2.802-5.301z" transform="translate(-1212.989 -818.684)" style="fill:#fcbe21"/>
        <path data-name="Path 94" d="M1282.132 1048.319c.014-1.933-5.963-2.177-7.371-1.95-.939.152-2.747 1.468-3.843 2.01a52.125 52.125 0 0 0-3.086 1.651 24.958 24.958 0 0 0-2.235 1.454 31.218 31.218 0 0 0 .11 7.5 10.773 10.773 0 0 0 2 .22 8.6 8.6 0 0 0 4.806-2.048c2.871-2.11 6.4 1.078 6.833-.755.179-.759-.689-1.3-1.683-1.659 1.393.23 2.883.27 3.106-.55.212-.776-.387-1.356-1.228-1.777 1.2.161 2.267.041 2.4-.839.2-1.346-1.88-2.027-3.4-2.344 1.503.168 3.584.2 3.591-.913z" transform="translate(-1149.394 -950.297)" style="fill:#f1c8aa"/>
        <path data-name="Path 95" d="M1373.659 1132.285a13.888 13.888 0 0 0-2.539-.605 21.288 21.288 0 0 0 2.539.605z" transform="translate(-1245.392 -1027.846)" style="fill:#f1c8aa"/>
        <path data-name="Path 96" d="M1393.2 1075.878a14.927 14.927 0 0 0-1.526-.238c.062.014.709.145 1.526.238z" transform="translate(-1264.057 -976.947)" style="fill:#f1c8aa"/>
        <path data-name="Path 97" d="M1383.9 1103.24a13.11 13.11 0 0 0-3.572-.98 18.121 18.121 0 0 0 3.572.98z" transform="translate(-1253.757 -1001.125)" style="fill:#f1c8aa"/>
        <path data-name="Path 98" d="M1373.687 1072.278a15.731 15.731 0 0 0-1.854-.148c-.015 0-.019.029 0 .03.612.1 1.219.241 1.835.34a17.827 17.827 0 0 1 4.151 1.16 8.886 8.886 0 0 0-2.3-.979 15.42 15.42 0 0 0-1.832-.403z" transform="translate(-1246.028 -973.758)" style="fill:#f1a87f"/>
        <path data-name="Path 99" d="M1373.111 1104.393a10.028 10.028 0 0 0-4.637-.778c-.011 0-.015.023 0 .025.779.1 3.836.642 4.613.794.058.011.081-.01.024-.041z" transform="translate(-1242.98 -1002.303)" style="fill:#f1a87f"/>
        <path data-name="Path 100" d="M1365.34 1131.554a7.334 7.334 0 0 0-3.578-.743c-.025 0-.023.052 0 .056 1.425.229 2.353.459 3.538.734.061.014.1-.022.04-.047z" transform="translate(-1236.877 -1027.039)" style="fill:#f1a87f"/>
        <path data-name="Path 101" d="M1265.6 1088.378a31.218 31.218 0 0 0 .11 7.5 10.782 10.782 0 0 0 2 .22c-1.254-2.852.129-9.174.129-9.174a24.939 24.939 0 0 0-2.239 1.454z" transform="translate(-1149.394 -987.192)" style="fill:#f1a87f"/>
        <path data-name="Path 102" d="M1304.141 1012.151c-.406 1.315-4.7 5.478-4.741 5.556 1.8-.605 5.378-3.119 6.219-3.255a4.425 4.425 0 0 0 .061-2.191c-.216-1.603-1.173-1.302-1.539-.11z" transform="translate(-1180.251 -918.379)" style="fill:#f1c8aa"/>
        <path data-name="Path 103" d="m1239.99 1087.067-4.54-.317c.449 2.236 1.6 8.659 2.018 12.893 2.06-.9 4.1-1.835 4.829-2.271a33.738 33.738 0 0 0-.763-5.831 13.748 13.748 0 0 0-1.544-4.474z" transform="translate(-1122.168 -987.037)" style="fill:#c62310"/>
        <path data-name="Path 104" d="M1163.408 415.115c-4.815.855-5.539.144-9.119-.092s-4.511 3.872-4.511 3.872c-3.767-1.338-5.114 3.376-4.678 8.654a10.564 10.564 0 0 0 4.69 7.8l12.884-4.278c3.443-2.471 2.293-6.778 2.293-6.778a5.058 5.058 0 0 0 2.844-1.988c1.189-1.492.412-8.044-4.403-7.19z" transform="translate(-1040.035 -376.923)" style="fill:#5b1e13"/>
        <path data-name="Path 105" d="m1183.654 493.543 1.817 2.637c.025.036.051.075.076.118q.1.176.19.358c.039.079.071.158.1.239l.047.112c.039.106.075.214.107.321a.109.109 0 0 0 .007.028c.033.116.062.234.086.352a4.708 4.708 0 0 1-1.686 4.579 2.423 2.423 0 0 0-2.31-2.176 2.6 2.6 0 0 0 0 5.167 2.085 2.085 0 0 0 .215-.011l-2.019 7.991 10.894 1.948 1.894-5.948c1.878.249 3.42.14 4.732-2.088 2.837-4.82-3.875-16.261-3.875-16.261s-3.683 3.021-10.275 2.634z" transform="translate(-1071.577 -445.857)" style="fill:#fbc5a9"/>
        <g data-name="Group 12" style="opacity:.5">
            <path data-name="Path 106" d="M1272.533 572.933c-1.156.192-2.018.783-1.932 1.32s1.1.818 2.255.627 2.018-.782 1.932-1.32-1.099-.819-2.255-.627z" transform="translate(-1154.089 -520.301)" style="fill:#f3888a"/>
        </g>
        <path data-name="Path 107" d="m1252.217 664.695.8-2.569s-5.791-1.43-7.278-2.916c.001-.01 3.906 5.255 6.478 5.485z" transform="translate(-1131.514 -598.718)" style="fill:#f7a18a"/>
        <path data-name="Path 108" d="M1309.457 609.592a1.744 1.744 0 0 0 1.848-1.171l-2.838-.72s-.357 1.666.99 1.891z" transform="translate(-1188.447 -551.933)" style="fill:#fff"/>
        <path data-name="Path 109" d="M1199.9 609.637h-2.377a.158.158 0 0 1 0-.316h1.228l-1.536-.911a.159.159 0 1 1 .16-.275z" transform="translate(-1087.37 -552.309)" style="fill:#f7a18a"/>
        <path data-name="Path 110" d="M1328.815 537.215a.161.161 0 0 1-.029-.317c1.085-.2 1.69-.505 1.8-.905.151-.557-.664-1.353-1.481-2.06a2.835 2.835 0 0 1-.955-2.394.16.16 0 1 1 .316.042 2.573 2.573 0 0 0 .847 2.11c.873.755 1.788 1.623 1.582 2.385-.146.537-.816.908-2.049 1.137z" transform="translate(-1206.349 -482.632)" style="fill:#f7a18a"/>
        <path data-name="Path 111" d="M1340.622 538.56a.47.47 0 0 0-.152.642.482.482 0 0 0 .586.311.471.471 0 0 0 .152-.642.48.48 0 0 0-.586-.311z" transform="translate(-1217.498 -489.11)" style="fill:#5b1e13"/>
        <path data-name="Path 112" d="M1306.114 550.716a.471.471 0 0 0-.152.642.483.483 0 0 0 .586.312.541.541 0 0 0-.434-.954z" transform="translate(-1186.156 -500.15)" style="fill:#5b1e13"/>
        <path data-name="Path 113" d="M1286.127 530.867a.328.328 0 0 1-.113-.021.32.32 0 0 1-.183-.412 2.077 2.077 0 0 1 2.51-1.307.32.32 0 0 1-.16.619 1.442 1.442 0 0 0-1.752.917.319.319 0 0 1-.302.204z" transform="translate(-1167.907 -480.51)" style="fill:#5b1e13"/>
        <path data-name="Path 114" d="M1331.285 514.994a.328.328 0 0 1-.106-.017.323.323 0 0 1-.2-.41 1.577 1.577 0 0 1 1.571-.917.321.321 0 1 1 .011.642c-.782.013-.971.474-.98.494a.316.316 0 0 1-.296.208z" transform="translate(-1208.92 -466.511)" style="fill:#5b1e13"/>
        <path data-name="Path 115" d="m2608.6 1528.731-1.292-3.2 2.187-2.709a18.94 18.94 0 0 0-1.14-1.544 17.466 17.466 0 0 0-1.437-1.524l-3.049 1.679-2.925-1.826.171-3.473a17.225 17.225 0 0 0-3.89-.967l-1.477 3.151-3.442.248-1.906-2.916a17.239 17.239 0 0 0-3.718 1.507l.664 3.423-2.637 2.227-3.256-1.239a17.136 17.136 0 0 0-2.066 3.3l2.532 2.393-.85 3.343-3.365.894a17.242 17.242 0 0 0 .268 4l3.449.446 1.284 3.2-2.192 2.7a16.4 16.4 0 0 0 1.172 1.593 17.821 17.821 0 0 0 1.392 1.49l3.055-1.676 2.923 1.841-.189 3.475a17.252 17.252 0 0 0 3.89.977l1.485-3.146 3.444-.233 1.9 2.922a17.467 17.467 0 0 0 3.725-1.494l-.657-3.423 2.646-2.215 3.255 1.25a17.392 17.392 0 0 0 2.127-3.4l-2.543-2.385.839-3.346 3.363-.905a17.557 17.557 0 0 0-.275-4.011zm-13.549 11.394a7.762 7.762 0 1 1 5.489-2.3 7.766 7.766 0 0 1-5.494 2.301z" transform="translate(-2341.266 -1376.156)" style="fill:#f9692e"/>
        <path data-name="Path 116" d="M2653.955 1578.459a11.375 11.375 0 1 0 11.416 11.339 11.375 11.375 0 0 0-11.416-11.339zm.086 21.641a10.262 10.262 0 1 1 10.215-10.3 10.263 10.263 0 0 1-10.215 10.3z" transform="translate(-2400.25 -1433.64)" style="fill:#ff742e"/>
        <path data-name="Path 117" d="M2708.819 1780.518a10.24 10.24 0 0 1-3.369-.55c-.826.046-1.666.065-2.52.052a11.375 11.375 0 0 0 14.932-2.92q-1.123.459-2.321.869a10.209 10.209 0 0 1-6.722 2.549z" transform="translate(-2455.027 -1614.058)" style="fill:#ff742e"/>
        <path data-name="Path 118" d="m2623.766 1526.451-1.292-3.2 2.186-2.709a18.661 18.661 0 0 0-1.14-1.544 17.492 17.492 0 0 0-1.437-1.524l-3.048 1.679-2.926-1.825.172-3.473a17.225 17.225 0 0 0-3.89-.967l-1.477 3.151-3.444.248-1.9-2.916a17.242 17.242 0 0 0-3.718 1.507l.664 3.423-2.636 2.227-3.257-1.24a17.1 17.1 0 0 0-2.065 3.3l2.531 2.392-.848 3.344-3.365.894a17.3 17.3 0 0 0 .267 4l3.45.447 1.284 3.2-2.192 2.7a16.28 16.28 0 0 0 1.172 1.594 17.606 17.606 0 0 0 1.392 1.49l3.055-1.676 2.923 1.84-.189 3.475a17.262 17.262 0 0 0 3.889.978l1.485-3.146 3.444-.233 1.9 2.922a17.417 17.417 0 0 0 3.725-1.494l-.657-3.423 2.646-2.216 3.256 1.251a17.376 17.376 0 0 0 2.127-3.4l-2.543-2.385.84-3.346 3.363-.9a17.53 17.53 0 0 0-.275-4.011zm-13.549 11.4a7.764 7.764 0 1 1 5.49-2.3 7.766 7.766 0 0 1-5.491 2.301z" transform="translate(-2355.045 -1374.085)" style="fill:#ffa900"/>
        <path data-name="Path 119" d="M2669.126 1576.219a11.375 11.375 0 1 0 11.416 11.339 11.375 11.375 0 0 0-11.416-11.339zm.086 21.641a10.262 10.262 0 1 1 10.215-10.3 10.263 10.263 0 0 1-10.215 10.3z" transform="translate(-2414.03 -1431.605)" style="fill:#f9692e"/>
        <path data-name="Path 120" d="m3005.88 1476.815.9-.591a11.33 11.33 0 0 0-.725-2.081l-1.074.1a1.559 1.559 0 0 1-1.532-2.248l.482-.959a11.696 11.696 0 0 0-1.669-1.439l-.877.619a1.559 1.559 0 0 1-2.452-1.181l-.062-1.077a11.32 11.32 0 0 0-2.166-.406l-.45.976a1.56 1.56 0 0 1-2.714.2l-.591-.9a11.375 11.375 0 0 0-2.082.725l.1 1.074a1.559 1.559 0 0 1-2.248 1.533l-.96-.482q-.4.38-.759.8c-.242.281-.469.572-.68.87l.619.877a1.56 1.56 0 0 1-1.181 2.452l-1.077.062a11.353 11.353 0 0 0-.406 2.167l.976.45a1.56 1.56 0 0 1 .2 2.714l-.9.591a11.306 11.306 0 0 0 .725 2.081l1.074-.1a1.56 1.56 0 0 1 1.532 2.249l-.482.959q.382.4.8.76c.281.241.572.468.869.679l.877-.619a1.56 1.56 0 0 1 2.452 1.182l.063 1.076a11.336 11.336 0 0 0 2.166.406l.45-.976a1.559 1.559 0 0 1 2.714-.2l.591.9a11.315 11.315 0 0 0 2.082-.725l-.1-1.073a1.56 1.56 0 0 1 2.249-1.533l.959.482q.4-.38.759-.8t.68-.87l-.619-.877a1.559 1.559 0 0 1 1.181-2.452l1.077-.062a11.32 11.32 0 0 0 .406-2.166l-.976-.45a1.559 1.559 0 0 1-.2-2.713zm-13.642-2.711a5.935 5.935 0 0 1 3.926-1.068.642.642 0 0 1 .551.862l-1.264 3.554a1.469 1.469 0 0 0-.416.122l-2.844-2.45a.649.649 0 0 1 .047-1.02zm-2.121 6.922a5.937 5.937 0 0 1 .257-4.752.647.647 0 0 1 1-.2l2.844 2.45a1.34 1.34 0 0 0-.032.138 1.461 1.461 0 0 0-.024.2zm5.067 3.824a5.891 5.891 0 0 1-3.383-1.416 5.8 5.8 0 0 1-.649-.651.647.647 0 0 1 .189-.99l3.29-1.76a1.494 1.494 0 0 0 .556.335l.679 3.719a.642.642 0 0 1-.684.762zm6.225-4.435a5.938 5.938 0 0 1-3.41 3.977.647.647 0 0 1-.89-.48l-.672-3.677a1.5 1.5 0 0 0 .651-.8l3.723.17a.648.648 0 0 1 .6.807zm-.642-2.065-3.808-.174a1.546 1.546 0 0 0-.3-.367l1.259-3.523a.642.642 0 0 1 .954-.331 5.943 5.943 0 0 1 2.56 3.592.648.648 0 0 1-.661.8z" transform="translate(-2710.559 -1332.905)" style="fill:#2284b6"/>
        <g data-name="Group 13" style="opacity:.16">
            <path data-name="Path 121" d="M3029.479 1510.451a7.568 7.568 0 1 0 10.446 2.334 7.568 7.568 0 0 0-10.446-2.334zm7.311 11.519a6.075 6.075 0 1 1 1.873-8.385 6.075 6.075 0 0 1-1.873 8.385z" transform="translate(-2748.43 -1370.801)" style="fill:#182e62"/>
        </g>
        <path data-name="Path 122" d="m3014.479 1468.265.9-.591a11.292 11.292 0 0 0-.725-2.081l-1.073.1a1.559 1.559 0 0 1-1.533-2.248l.482-.96q-.379-.4-.8-.76t-.87-.679l-.877.619a1.559 1.559 0 0 1-2.451-1.181l-.063-1.077a11.342 11.342 0 0 0-2.166-.406l-.45.976a1.56 1.56 0 0 1-2.714.2l-.591-.9a11.346 11.346 0 0 0-2.081.725l.1 1.074a1.559 1.559 0 0 1-2.248 1.532l-.96-.482a11.508 11.508 0 0 0-1.439 1.67l.619.877a1.559 1.559 0 0 1-1.18 2.452l-1.077.062a11.3 11.3 0 0 0-.406 2.166l.976.45a1.56 1.56 0 0 1 .2 2.714l-.9.591a11.326 11.326 0 0 0 .724 2.081l1.074-.1a1.56 1.56 0 0 1 1.533 2.249l-.482.956q.38.4.8.759t.87.68l.877-.619a1.56 1.56 0 0 1 2.452 1.186l.062 1.077a11.352 11.352 0 0 0 2.167.406l.45-.976a1.56 1.56 0 0 1 2.714-.2l.591.9a11.328 11.328 0 0 0 2.081-.725l-.1-1.074a1.56 1.56 0 0 1 2.249-1.533l.959.483q.4-.381.76-.8t.68-.87l-.62-.877a1.56 1.56 0 0 1 1.182-2.452l1.076-.062a11.419 11.419 0 0 0 .407-2.166l-.976-.45a1.56 1.56 0 0 1-.2-2.71zm-13.641-2.709a5.93 5.93 0 0 1 3.925-1.068.642.642 0 0 1 .551.862l-1.263 3.553a1.5 1.5 0 0 0-.416.123l-2.844-2.45a.649.649 0 0 1 .047-1.024zm-2.124 6.921a5.935 5.935 0 0 1 .257-4.752.648.648 0 0 1 1-.2l2.844 2.45a1.703 1.703 0 0 0-.033.137 1.587 1.587 0 0 0-.024.2zm5.067 3.824a5.939 5.939 0 0 1-4.036-2.067.648.648 0 0 1 .189-.99l3.291-1.76a1.5 1.5 0 0 0 .555.335l.681 3.719a.642.642 0 0 1-.679.759zm.967-5.144a.9.9 0 1 1 .275-1.248.9.9 0 0 1-.275 1.248zm5.258.708a5.937 5.937 0 0 1-3.41 3.978.642.642 0 0 1-.89-.48l-.673-3.678a1.5 1.5 0 0 0 .651-.8l3.723.171a.647.647 0 0 1 .6.8zm-.642-2.064-3.808-.174a1.5 1.5 0 0 0-.3-.367l1.254-3.526a.642.642 0 0 1 .955-.331 6.007 6.007 0 0 1 .666.5 5.892 5.892 0 0 1 1.893 3.1.649.649 0 0 1-.656.8z" transform="translate(-2718.37 -1325.139)" style="fill:#19c0e7"/>
        <g data-name="Group 14" style="opacity:.16">
            <path data-name="Path 123" d="M3038.062 1501.881a7.568 7.568 0 1 0 10.445 2.338 7.568 7.568 0 0 0-10.445-2.338zm7.31 11.518a6.075 6.075 0 1 1 1.874-8.384 6.075 6.075 0 0 1-1.874 8.385z" transform="translate(-2756.222 -1363.02)" style="fill:#184462"/>
        </g>
        <ellipse data-name="Ellipse 5" cx="13.625" cy="8.411" rx="13.625" ry="8.411" transform="translate(69.49 45.134)" style="fill:#ff2b9a"/>
        <path data-name="Path 124" d="M955.342 637.294c-.275.137 4.766 3.745 4.97 3.745s-.613-5.106-.613-5.379c.001 0-4.084 1.499-4.357 1.634z" transform="translate(-867.746 -577.328)" style="fill:#ff2b9a"/>
        <circle data-name="Ellipse 6" cx="1.496" cy="1.496" r="1.496" transform="translate(88.45 52.053)" style="fill:#fff"/>
        <path data-name="Path 125" d="M893.286 567.22a1.5 1.5 0 1 0 1.5 1.5 1.5 1.5 0 0 0-1.5-1.5z" transform="translate(-810.034 -515.167)" style="fill:#fff"/>
        <path data-name="Path 126" d="M820.316 567.22a1.5 1.5 0 1 0 1.5 1.5 1.5 1.5 0 0 0-1.5-1.5z" transform="translate(-743.758 -515.167)" style="fill:#fff"/>
        <path data-name="Path 127" d="m3777.423 1218-1.329 2.293c1.284.748 4.259 4.049 5.29 8.294a12.961 12.961 0 0 1-1.865 10.361c-2.855 4.467-7.325 6.422-13.286 5.821a27.147 27.147 0 0 1-8.387-2.343l-1.185 2.36a29.519 29.519 0 0 0 9.307 2.61c6.938.7 12.4-1.728 15.785-7.031a15.7 15.7 0 0 0 2.206-12.411c-1.19-4.897-4.603-8.838-6.536-9.954z" transform="translate(-3412.093 -1106.247)" style="fill:#1d2289"/>
        <path data-name="Path 128" d="M2964.923 512.283c-6.886 1.109-11.533 4.862-13.44 10.861a15.717 15.717 0 0 0 1.066 12.561c2.412 4.425 6.724 7.354 8.88 7.939l.693-2.556c-1.437-.39-5.158-2.814-7.247-6.65a12.964 12.964 0 0 1-.868-10.492c1.607-5.051 5.422-8.1 11.338-9.049a27.067 27.067 0 0 1 8.707.1l.537-2.594a29.551 29.551 0 0 0-9.666-.12z" transform="translate(-2680.027 -464.962)" style="fill:#1d2289"/>
        <path data-name="Path 129" d="M2662.535 2643.705h-108.84a1.762 1.762 0 1 0 0 3.523h108.841a1.762 1.762 0 1 0 0-3.523z" transform="translate(-2317.845 -2401.164)" style="fill:#1d2289"/>
        <path data-name="Path 130" d="M2775.441 2448.44h-78.013a4.258 4.258 0 0 0-4.259 4.258v13.655h86.531V2452.7a4.258 4.258 0 0 0-4.259-4.26z" transform="translate(-2446.163 -2223.812)" style="fill:#5153cb"/>
        <path data-name="Path 131" d="M2826.8 2365.5h-66.462a4.259 4.259 0 0 0-4.259 4.257v3.351h74.983v-3.35a4.259 4.259 0 0 0-4.261-4.258z" transform="translate(-2503.302 -2148.48)" style="fill:#1d2289"/>
        <path data-name="Rectangle 42" transform="translate(315.598 228.349)" style="fill:#1d2289" d="M0 0h6.992v14.192H0z"/>
        <path data-name="Rectangle 43" transform="translate(310.291 228.349)" style="fill:#1d2289" d="M0 0h2.809v14.192H0z"/>
        <path data-name="Rectangle 44" transform="translate(306.332 228.349)" style="fill:#1d2289" d="M0 0h2.809v14.192H0z"/>
        <path data-name="Rectangle 45" transform="translate(302.372 228.349)" style="fill:#1d2289" d="M0 0h2.81v14.192H0z"/>
        <path data-name="Rectangle 46" transform="translate(256.496 228.349)" style="fill:#1d2289" d="M0 0h21.655v14.192H0z"/>
        <path data-name="Path 132" d="m3255.01 1356.236-2.433-2.236-60.348 65.542 4.662 4.292a2.453 2.453 0 0 0 3.514-.2l54.795-63.986a2.453 2.453 0 0 0-.19-3.412z" transform="translate(-2899.441 -1229.771)" style="fill:#3641ab"/>
        <path data-name="Path 133" d="m3059.551 1231.769-59.148 59.985a2.453 2.453 0 0 0 .1 3.519l4.669 4.284 60.232-65.648-2.437-2.235a2.452 2.452 0 0 0-3.416.095z" transform="translate(-2724.579 -1118.08)" style="fill:#3641ab"/>
        <path data-name="Path 134" d="m3135.781 1143.514-4.916-4.525a4.954 4.954 0 0 0-6.925.215l-67 69.32a2.69 2.69 0 0 0 .112 3.847l13.7 12.619 65.38-74.556a4.954 4.954 0 0 0-.351-6.92z" transform="translate(-2775.875 -1033.296)" style="fill:#5863d2"/>
        <path data-name="Path 135" d="m3337.536 1314.789-.514-.473a3.917 3.917 0 0 0-5.535.228l-34.5 37.471a3.917 3.917 0 0 0 .229 5.535l.514.473a3.917 3.917 0 0 0 5.535-.228l34.5-37.472a3.916 3.916 0 0 0-.229-5.534z" transform="translate(-2993.646 -1192.787)" style="fill:#1d2289"/>
        <path data-name="Rectangle 47" transform="rotate(-47.39 338.788 -263.149)" style="fill:#91b3fa" d="M0 0h58.771v1.97H0z"/>
        <path data-name="Path 136" d="M2924.7 1834.12a23.746 23.746 0 0 0-23.748 23.748v25h47.5v-25a23.747 23.747 0 0 0-23.752-23.748z" transform="translate(-2634.882 -1665.847)" style="fill:#3641ab"/>
        <circle data-name="Ellipse 7" cx="17.466" cy="17.466" r="17.466" transform="rotate(-45 363.405 -224.403)" style="fill:#1d2289"/>
        <circle data-name="Ellipse 8" cx="13.342" cy="13.342" r="13.342" transform="rotate(-88 243.783 -40.885)" style="fill:#91b3fa"/>
        <path data-name="Path 137" d="M3286.268 673.324a1.971 1.971 0 0 0 .073 2.743l48.086 47.582a1.97 1.97 0 0 0 2.826-.074l3.447-3.744-52.635-48.461z" transform="translate(-2984.38 -609.763)" style="fill:#3641ab"/>
        <path data-name="Path 138" d="m3469.7 592.025-51.614-43.725a1.97 1.97 0 0 0-2.738.168l-1.788 1.963 52.892 48.177 3.427-3.761a1.969 1.969 0 0 0-.174-2.819z" transform="translate(-3100.467 -497.549)" style="fill:#3641ab"/>
        <path data-name="Path 139" d="m3298.868 549.088-58.207-51.044a3.975 3.975 0 0 0-5.556.286l-3.634 3.945a3.976 3.976 0 0 0 .171 5.562l57.258 55.348 10.133-11.008a2.16 2.16 0 0 0-.165-3.089z" transform="translate(-2934.127 -451.432)" style="fill:#5863d2"/>
        <path data-name="Path 140" d="m3436.792 676.831-31.465-28.97a3.426 3.426 0 0 0-4.642 5.041l31.465 28.97a3.426 3.426 0 1 0 4.642-5.041z" transform="translate(-3087.77 -587.587)" style="fill:#1d2289"/>
        <path data-name="Rectangle 48" transform="rotate(-47.39 225.667 -325.14)" style="fill:#91b3fa" d="M0 0h1.582v49.622H0z"/>
        <circle data-name="Ellipse 9" cx="14.026" cy="14.026" r="14.026" transform="rotate(-7.12 931.192 -2707.625)" style="fill:#1d2289"/>
        <circle data-name="Ellipse 10" cx="10.715" cy="10.715" r="10.715" transform="rotate(-84.26 237.649 -133.485)" style="fill:#91b3fa"/>
        <path data-name="Path 141" d="m3032.248 499.379-11.581 44.384c-.33 1.239.71 2.615 2.338 3.1l4.037 1.193c1.629.482 3.249-.109 3.646-1.328l14.814-44.8-11.259-3.328a1.517 1.517 0 0 0-1.995.779z" transform="translate(-2743.562 -452.758)" style="fill:#5863d2"/>
        <path data-name="Path 142" d="M3141.918 711.188a1.748 1.748 0 1 0 1.215-.561 1.748 1.748 0 0 0-1.215.561z" transform="translate(-2853.323 -645.416)" style="fill:#91b3fa"/>
        <circle data-name="Ellipse 11" cx="1.749" cy="1.749" r="1.749" transform="rotate(-70.31 197.18 -163.187)" style="fill:#91b3fa"/>
        <path data-name="Path 143" d="M3075.085 908.148a1.749 1.749 0 1 0 1.218-.564 1.749 1.749 0 0 0-1.218.564z" transform="translate(-2792.623 -824.306)" style="fill:#91b3fa"/>
        <circle data-name="Ellipse 12" cx="11.01" cy="11.01" r="11.01" transform="translate(284.717 37.4)" style="fill:#1d2289"/>
        <circle data-name="Ellipse 13" cx="8.41" cy="8.41" r="8.41" transform="rotate(-33.52 218.519 -448.617)" style="fill:#91b3fa"/>
        <path data-name="Path 144" d="m3000.875 994.717-13.475-4.037a.193.193 0 0 0-.239.129l-1.339 4.47a.19.19 0 0 0 .015.146.193.193 0 0 0 .114.093l13.475 4.036a.192.192 0 0 0 .239-.128l1.339-4.47a.191.191 0 0 0-.128-.24z" transform="translate(-2711.96 -899.773)" style="fill:#1d2289"/>
        <path data-name="Path 145" d="M2965.784 1094.682a7.124 7.124 0 0 0 13.657-1.618l-13.577-3.894a7.1 7.1 0 0 0-.08 5.512z" transform="translate(-2693.298 -989.235)" style="fill:#1d2289"/>
        <path data-name="Path 146" d="m2965.786 1037.576-2.159-.642-13.075-3.919-1.978-.593a.763.763 0 0 0-.931.544l-1.2 4a.763.763 0 0 0 .479.965l17.212 5.158a.764.764 0 0 0 .931-.544l1.2-4a.764.764 0 0 0-.479-.971z" transform="translate(-2676.167 -937.671)" style="fill:#5863d2"/>
        <path data-name="Path 147" d="M3826.753 1074.48a7.581 7.581 0 0 0-2.768 14.634 6.955 6.955 0 1 1 9.825-9.826 7.582 7.582 0 0 0-7.057-4.808z" transform="translate(-3468.881 -975.893)" style="fill:#fff"/>
        <path data-name="Path 148" d="M3165.4 461.445a5.571 5.571 0 0 0-1.481 6.1 5.11 5.11 0 1 1 10.194.523 5.568 5.568 0 0 0-8.715-6.621z" transform="translate(-2873.399 -417.789)" style="fill:#fff"/>
        <path data-name="Path 149" d="M3079.73 2041.387a6.954 6.954 0 0 1-7.379-10.667 7.58 7.58 0 1 0 11.847 7.259 6.936 6.936 0 0 1-4.468 3.408z" transform="translate(-2787.615 -1844.411)" style="fill:#fff"/>
        <path data-name="Path 150" d="m3046.59 1291.213 1.771.828 9.344-12.013-4.83-2.258z" transform="translate(-2767.161 -1160.534)" style="fill:#453b73"/>
        <path data-name="Path 151" d="m2816.86 1203.343 1.85.634 4.811-14.037-5.044-1.729z" transform="translate(-2558.506 -1079.19)" style="fill:#453b73"/>
        <path data-name="Path 152" d="m2952.553 1137.768-10.885-3.266a2.517 2.517 0 1 0-1.447 4.823l10.885 3.266a2.517 2.517 0 0 0 1.447-4.823z" transform="translate(-2668.92 -1030.312)" style="fill:#5863d2"/>
        <path data-name="Path 153" d="M3068.807 1173.257a2.158 2.158 0 0 0-3.9 1.752l2.707 9.468a3.588 3.588 0 0 0 4.813 2.337 3.59 3.59 0 0 0 1.651-5.278z" transform="translate(-2783.725 -1064.699)" style="fill:#5863d2"/>
        <path data-name="Path 154" d="M3118.15 1278.366a1.376 1.376 0 1 0 1.341.86 1.376 1.376 0 0 0-1.341-.86z" transform="translate(-2830.966 -1161.074)" style="fill:#91b3fa"/>
        <path data-name="Path 155" d="M3078.681 1186.55a1.06 1.06 0 1 0 1.03.66 1.06 1.06 0 0 0-1.03-.66z" transform="translate(-2795.389 -1077.681)" style="fill:#91b3fa"/>
        <path data-name="Path 156" d="M2842.638 1135.522a2.159 2.159 0 0 0-2.66-1.4l-9.413 2.781a3.59 3.59 0 1 0 2.94 6.461l8.256-5.362a2.158 2.158 0 0 0 .877-2.477z" transform="translate(-2568.584 -1029.982)" style="fill:#5863d2"/>
        <path data-name="Path 157" d="M2953.69 1147.449a1.06 1.06 0 1 0 .608 1.061 1.06 1.06 0 0 0-.608-1.061z" transform="translate(-2681.414 -1042.078)" style="fill:#91b3fa"/>
        <path data-name="Path 158" d="M2855.936 1187.826a1.376 1.376 0 1 0 .791 1.382 1.376 1.376 0 0 0-.791-1.382z" transform="translate(-2592.222 -1078.725)" style="fill:#91b3fa"/>
    </g>
</svg>
