<svg xmlns="http://www.w3.org/2000/svg" width="23.959" height="16.771" viewBox="0 0 23.959 16.771">
    <path data-name="Icon awesome-users" d="M3.594 9.438a2.4 2.4 0 1 0-2.4-2.4 2.4 2.4 0 0 0 2.4 2.4zm16.771 0a2.4 2.4 0 1 0-2.4-2.4 2.4 2.4 0 0 0 2.4 2.4zm1.2 1.2h-2.4a2.389 2.389 0 0 0-1.688.7 5.476 5.476 0 0 1 2.811 4.1h2.471a1.2 1.2 0 0 0 1.2-1.2v-1.2a2.4 2.4 0 0 0-2.396-2.402zm-9.584 0a4.193 4.193 0 1 0-4.194-4.195 4.191 4.191 0 0 0 4.193 4.193zm2.875 1.2h-.311a5.789 5.789 0 0 1-5.129 0H9.1a4.314 4.314 0 0 0-4.313 4.313v1.078a1.8 1.8 0 0 0 1.8 1.8H17.37a1.8 1.8 0 0 0 1.8-1.8v-1.083a4.314 4.314 0 0 0-4.315-4.312zm-8.374-.5a2.389 2.389 0 0 0-1.688-.7H2.4a2.4 2.4 0 0 0-2.4 2.4v1.2a1.2 1.2 0 0 0 1.2 1.2h2.465a5.49 5.49 0 0 1 2.815-4.106z" transform="translate(0 -2.25)" style="fill:#7a7a7a"/>
</svg>
