<svg xmlns="http://www.w3.org/2000/svg" width="15.658" height="12.717" viewBox="0 0 15.658 12.717">
    <path data-name="Icon awesome-twitter" d="M14.048 6.55c.01.139.01.278.01.417a9.068 9.068 0 0 1-9.13 9.13A9.069 9.069 0 0 1 0 14.657a6.639 6.639 0 0 0 .775.04 6.427 6.427 0 0 0 3.984-1.371 3.215 3.215 0 0 1-3-2.225 4.047 4.047 0 0 0 .606.05 3.394 3.394 0 0 0 .844-.109A3.209 3.209 0 0 1 .636 7.891v-.04a3.232 3.232 0 0 0 1.451.407 3.214 3.214 0 0 1-.994-4.292A9.122 9.122 0 0 0 7.71 7.325a3.623 3.623 0 0 1-.08-.735 3.212 3.212 0 0 1 5.554-2.2 6.318 6.318 0 0 0 2.037-.775 3.2 3.2 0 0 1-1.411 1.773 6.433 6.433 0 0 0 1.848-.5 6.9 6.9 0 0 1-1.61 1.662z" transform="translate(0 -3.381)" style="fill:#7a7a7a"/>
</svg>
