<svg xmlns="http://www.w3.org/2000/svg" width="21.027" height="16.354" viewBox="0 0 21.027 16.354">
    <path data-name="Icon awesome-object-ungroup" d="M2.336 12.763v.949a.219.219 0 0 1-.219.219H.219A.219.219 0 0 1 0 13.713v-1.9a.219.219 0 0 1 .219-.213h.949V4.586H.219A.219.219 0 0 1 0 4.367v-1.9a.219.219 0 0 1 .219-.217h1.9a.219.219 0 0 1 .219.219v.949H12.85v-.949a.219.219 0 0 1 .219-.219h1.9a.219.219 0 0 1 .219.219v1.9a.219.219 0 0 1-.219.219h-.949V11.6h.949a.219.219 0 0 1 .219.219v1.9a.219.219 0 0 1-.219.219h-1.9a.219.219 0 0 1-.219-.219v-.949zm17.522-2.336V9.259h.949a.219.219 0 0 0 .219-.219v-1.9a.219.219 0 0 0-.219-.219h-1.9a.219.219 0 0 0-.219.219v.949h-3.8v2.628h.292a.876.876 0 0 1 .876.876v2.336a.876.876 0 0 1-.876.876h-2.33a.876.876 0 0 1-.876-.876v-.289H7.009v2.628H6.06a.219.219 0 0 0-.219.219v1.9a.219.219 0 0 0 .219.219h1.9a.219.219 0 0 0 .219-.219v-.949h10.512v.949a.219.219 0 0 0 .219.219h1.9a.219.219 0 0 0 .219-.219v-1.9a.219.219 0 0 0-.219-.219h-.949z" transform="translate(0 -2.25)" style="fill:#7a7a7a"/>
</svg>
