<svg xmlns="http://www.w3.org/2000/svg" width="16.067" height="16.065" viewBox="0 0 16.067 16.065">
    <path data-name="Icon ionic-ios-call" d="M4.954 17.082A13.5 13.5 0 0 1 7.773 15.2c.845-.406 1.154-.4 1.752.033.5.36.82.694 1.393.569a8.309 8.309 0 0 0 2.8-2.07 8.249 8.249 0 0 0 2.07-2.8c.121-.577-.213-.9-.569-1.393-.431-.6-.443-.908-.033-1.752a13.228 13.228 0 0 1 1.886-2.819c.615-.615.753-.481 1.092-.36a6.212 6.212 0 0 1 1 .531 3.016 3.016 0 0 1 1.2 1.267c.238.514.514 1.472-.891 3.973a22.171 22.171 0 0 1-3.9 5.2 22.258 22.258 0 0 1-5.2 3.9c-2.5 1.405-3.459 1.129-3.973.891a2.964 2.964 0 0 1-1.267-1.2 6.212 6.212 0 0 1-.531-1c-.129-.335-.267-.47.352-1.088z" transform="translate(-4.49 -4.502)" style="fill:#7a7a7a"/>
</svg>
