<svg xmlns="http://www.w3.org/2000/svg" width="25.002" height="20" viewBox="0 0 25.002 20">
    <path data-name="Icon awesome-hands-helping" d="M19.063 7.5h-5.938v2.189a2.813 2.813 0 0 1-5.625 0v-4.75L4.965 6.462A2.5 2.5 0 0 0 3.75 8.6v1.848l-3.125 1.8a1.247 1.247 0 0 0-.457 1.707l3.125 5.415A1.251 1.251 0 0 0 5 19.834L9.039 17.5h5.336a2.5 2.5 0 0 0 2.5-2.5h.625a1.249 1.249 0 0 0 1.25-1.25v-2.5h.313a.935.935 0 0 0 .937-.936V8.439a.935.935 0 0 0-.937-.939zm5.77-1.461L21.708.626A1.251 1.251 0 0 0 20 .169L15.962 2.5h-3.993a2.519 2.519 0 0 0-1.324.379L9.336 3.7a1.242 1.242 0 0 0-.586 1.055v4.934a1.563 1.563 0 1 0 3.125 0V6.251h7.188a2.189 2.189 0 0 1 2.188 2.188v1.113l3.125-1.8a1.251 1.251 0 0 0 .457-1.707z" transform="translate(.002 -.002)" style="fill:#7a7a7a"/>
</svg>
