<svg xmlns="http://www.w3.org/2000/svg" width="18.378" height="16.964" viewBox="0 0 18.378 16.964">
    <g data-name="Icon ionic-ios-briefcase">
        <path data-name="Path 1" d="M4.789 25.646h15.55a1.412 1.412 0 0 0 1.414-1.414V15.75H3.375v8.482a1.412 1.412 0 0 0 1.414 1.414z" transform="translate(-3.375 -8.682)" style="fill:#7a7a7a"/>
        <path data-name="Path 2" d="M20.339 7.327h-.353v-.353a.354.354 0 0 0-.353-.353h-1.414a.354.354 0 0 0-.353.353v.353h-1.238V5.914A1.418 1.418 0 0 0 15.215 4.5h-5.3A1.418 1.418 0 0 0 8.5 5.914v1.413H7.263v-.353a.354.354 0 0 0-.353-.353H5.5a.354.354 0 0 0-.353.353v.353h-.358a1.412 1.412 0 0 0-1.414 1.414v1.767h18.378V8.741a1.412 1.412 0 0 0-1.414-1.414zm-4.948 0H9.737V6.09a.354.354 0 0 1 .353-.353h4.948a.354.354 0 0 1 .353.353z" style="fill:#7a7a7a" transform="translate(-3.375 -4.5)"/>
    </g>
</svg>
