<svg xmlns="http://www.w3.org/2000/svg" width="450" height="300" viewBox="0 0 450 300">
    <g data-name="6" transform="translate(.001)">
        <path data-name="Path 159" d="M1190.7 404.078c-32.505-3.988-65.6-36.32-98.85-39.577s-82.828 25.543-92.439 80.557 27.809 98.018 27.809 98.018c28.766 35.668 97.677 10.914 146.374 8.908s78.786-7.282 88.683-61.379-39.063-82.539-71.577-86.527z" transform="translate(-901.988 -329.315)" style="fill:#eff6d7"/>
        <path data-name="Path 160" d="M1190.7 404.078c-32.505-3.988-65.6-36.32-98.85-39.577s-82.828 25.543-92.439 80.557 27.809 98.018 27.809 98.018c28.766 35.668 97.677 10.914 146.374 8.908s78.786-7.282 88.683-61.379-39.063-82.539-71.577-86.527z" transform="translate(-901.988 -329.315)" style="fill:#d4cae3"/>
        <path data-name="Path 161" d="M2090.848 1452.87a3.573 3.573 0 0 0-4.666 1.953l-44.6 108.868a3.578 3.578 0 1 0 6.618 2.719l44.594-108.864a3.582 3.582 0 0 0-1.951-4.678z" transform="translate(-1845.058 -1312.936)" style="fill:#2d2b6e"/>
        <path data-name="Path 162" d="M2514.136 1454.858a3.577 3.577 0 0 0-6.617 2.719l44.6 108.868a3.577 3.577 0 0 0 6.617-2.719z" transform="translate(-2266.156 -1312.971)" style="fill:#2d2b6e"/>
        <ellipse data-name="Ellipse 14" cx="87.738" cy="87.875" rx="87.738" ry="87.875" transform="translate(158.057 55.362)" style="fill:#e84b4e"/>
        <ellipse data-name="Ellipse 15" cx="73.349" cy="73.463" rx="73.349" ry="73.463" transform="translate(172.446 69.774)" style="fill:#fff8f0"/>
        <ellipse data-name="Ellipse 16" cx="59.855" cy="59.948" rx="59.855" ry="59.948" transform="translate(185.941 83.289)" style="fill:#e84b4e"/>
        <ellipse data-name="Ellipse 17" cx="40.984" cy="41.047" rx="40.984" ry="41.047" transform="translate(204.812 102.19)" style="fill:#fff8f0"/>
        <ellipse data-name="Ellipse 18" cx="26.85" cy="26.892" rx="26.85" ry="26.892" transform="translate(218.945 116.345)" style="fill:#e84b4e"/>
        <ellipse data-name="Ellipse 19" cx="13.009" cy="13.029" rx="13.009" ry="13.029" transform="translate(232.787 130.208)" style="fill:#fff8f0"/>
        <ellipse data-name="Ellipse 20" cx="7.093" cy="7.104" rx="7.093" ry="7.104" transform="translate(238.703 136.133)" style="fill:#e84b4e"/>
        <g data-name="Group 15" style="opacity:.2">
            <path data-name="Path 163" d="M1647.52 1352.889a87.71 87.71 0 0 0 142.284 68.829l-141.077-83.4a88.669 88.669 0 0 0-1.207 14.569z" transform="translate(-1489.155 -1209.651)" style="fill:#a52049"/>
        </g>
        <g data-name="Group 16" transform="translate(122.636 43.196)" style="opacity:.3">
            <rect data-name="Rectangle 49" width="75.921" height="60.936" rx="30.468" style="fill:#20bfe8"/>
        </g>
        <ellipse data-name="Ellipse 21" cx="1.019" cy="1.02" rx="1.019" ry="1.02" transform="translate(156.736 152.723)" style="fill:#fff"/>
        <ellipse data-name="Ellipse 22" cx="104.541" cy="6.121" rx="104.541" ry="6.121" transform="translate(148.904 253.23)" style="fill:#a09ac9"/>
        <path data-name="Path 164" d="M1248.49 594.452a6.158 6.158 0 0 0 6.153 6.163h63.439a6.158 6.158 0 0 0 6.158-6.163V551.47h-75.75z" transform="translate(-1128.522 -498.517)" style="fill:#fff"/>
        <path data-name="Path 165" d="M1318.082 432.72h-63.439a6.159 6.159 0 0 0-6.153 6.158v5.264h75.745v-5.264a6.158 6.158 0 0 0-6.153-6.158z" transform="translate(-1128.522 -391.194)" style="fill:#20bfe8"/>
        <path data-name="Path 166" d="M1321.75 462.48v-25.843a6.738 6.738 0 0 0-2.5-5.53 7.068 7.068 0 0 0-4.495-1.347h-62.507a6.7 6.7 0 0 0-5.226 2.208 6.559 6.559 0 0 0-1.59 4.271v20.209a.289.289 0 0 0 .577 0v-20.2a5.87 5.87 0 0 1 5.888-5.913h62.82a6.472 6.472 0 0 1 4.381 1.383 5.955 5.955 0 0 1 2.083 4.5v46.432c0 .6.006 1.2 0 1.8a5.939 5.939 0 0 1-5.934 5.876c-2.108.008-4.216 0-6.324 0h-57.048a5.941 5.941 0 0 1-5.87-6.006c-.008-4.493 0-8.987 0-13.479v-3.977a.289.289 0 0 0-.577 0v12.685c0 1.623-.013 3.247 0 4.869a6.525 6.525 0 0 0 6.439 6.484c1.819.016 3.638 0 5.457 0h57.964a6.517 6.517 0 0 0 6.453-6.183c.1-2.309.006-4.638.006-6.947z" transform="translate(-1125.749 -388.519)" style="fill:#2083b9"/>
        <path data-name="Path 167" d="M1351.751 476a1.925 1.925 0 1 0 1.918 1.925 1.925 1.925 0 0 0-1.918-1.925z" transform="translate(-1220.101 -430.309)" style="fill:#fff"/>
        <path data-name="Path 168" d="M1301.3 476a1.92 1.92 0 1 0 1.358.565 1.924 1.924 0 0 0-1.358-.565z" transform="translate(-1174.505 -430.309)" style="fill:#fff"/>
        <path data-name="Path 169" d="M1402.21 476a1.92 1.92 0 1 0 1.358.565 1.925 1.925 0 0 0-1.358-.565z" transform="translate(-1265.705 -430.309)" style="fill:#fff"/>
        <path data-name="Path 170" d="M994.494 1246.2a1.021 1.021 0 1 0 1.018 1.021 1.021 1.021 0 0 0-1.018-1.021z" transform="translate(-898.041 -1126.396)" style="fill:#fff"/>
        <path data-name="Path 171" d="M3091.281 1064.588a25.017 25.017 0 0 1-2.448 3.313c-.331.067-1.722 6.7-1.722 6.7s2.591.972 7.839.561c1.526-.119 7.884-1.5 7.884-1.5l-3.945-12.317z" transform="translate(-2790.219 -959.333)" style="fill:#fab995"/>
        <path data-name="Path 172" d="M2959.36 894.766c-1.589-2.179-5.756-4.047-7.239-6.015-1.7-2.251-.978-4.612-1.905-5.806-.289-.376-1.962.251-2.123.046a5.388 5.388 0 0 1-.444-.981l-3.079.866s.35 1.1.467 1.355c.1.238.133.55.327.982.866 1.946 2.342 5.663 4.1 9.61 1.222 2.76 2.5 5.629 3.593 8.078.855 1.919 1.678 5.04 2.2 6.2 3.657 8.045 14.375 2.494 9.844-5.545a84.52 84.52 0 0 0-5.741-8.79z" transform="translate(-2661.394 -797.25)" style="fill:#fab995"/>
        <path data-name="Path 173" d="m2997.83 622.943 18.654 1.984 46.795-46.285-20.983-.233z" transform="translate(-2709.53 -522.865)" style="fill:#33bec3"/>
        <path data-name="Path 174" d="m2964.13 405.106 3.243 20.444 44.465-44.534L3011.6 360z" transform="translate(-2679.072 -325.471)" style="fill:#33bec3"/>
        <path data-name="Path 175" d="m2608.193 555.073-86.4 86.536a3.146 3.146 0 1 0 4.447 4.453l86.4-86.534a3.147 3.147 0 1 0-4.446-4.454z" transform="translate(-2278.461 -500.944)" style="fill:#4e5ca8"/>
        <path data-name="Path 176" d="m3240.884 2417.43 3.04 18.459-10.341 5.122c-.351.137-2.379-.022-2.381.367l-.312.594c0 .52.749-.754 1.251-.751l19.869.109-.385-5.16.4-17.522z" transform="translate(-2920.163 -2184.923)" style="fill:#facabd"/>
        <path data-name="Path 177" d="M3238.416 2589.252c-1.065 1.251-3.778-.308-4.042-.491a.991.991 0 0 1-.3-.652c.248-1.82-2.081-2.666-2.322-2.751s-4.652 4.042-6.111 5.185-5.058.515-5.848.495-1.6 2.767-1.6 2.767l8.4 1.787 14.8-1.093-.866-5.966c-1.72-.799-2.111.719-2.111.719z" transform="translate(-2908.694 -2336.69)" style="fill:#e84b4e"/>
        <path data-name="Path 178" d="M3216.873 2673.15s-.321 1.217 0 1.565 7.092.857 8.213.938c1.091.079 13.578.626 14.915-.069l.069-1.741h-13.781z" transform="translate(-2907.366 -2416.036)" style="fill:#b92427"/>
        <path data-name="Path 179" d="M3341.251 2596.117a.215.215 0 0 0-.3.045.234.234 0 0 0 .064.316c.289.212 1.053.893 1.064 1.472a.243.243 0 0 0 .106.192.225.225 0 0 0 .122.042.2.2 0 0 0 .219-.213c-.026-.933-1.226-1.816-1.275-1.854z" transform="translate(-3019.596 -2346.376)" style="fill:#f6cc5f"/>
        <path data-name="Path 180" d="M3328.886 2606.968a.218.218 0 0 0-.311.035.233.233 0 0 0 .057.317c.457.348 1.11.99 1.131 1.325a.245.245 0 0 0 .1.184.234.234 0 0 0 .132.042.206.206 0 0 0 .209-.223c-.037-.67-1.104-1.516-1.318-1.68z" transform="translate(-3008.414 -2356.177)" style="fill:#f6cc5f"/>
        <path data-name="Path 181" d="M3318.092 2615.53a.221.221 0 0 0-.314.006.227.227 0 0 0 .027.317 4.057 4.057 0 0 1 1.042 1.428.246.246 0 0 0 .1.138.23.23 0 0 0 .176.039.209.209 0 0 0 .158-.264 4.526 4.526 0 0 0-1.189-1.664z" transform="translate(-2998.642 -2363.904)" style="fill:#f6cc5f"/>
        <path data-name="Path 182" d="M3309.025 2622.951a.219.219 0 0 0-.033.313 4.138 4.138 0 0 1 .736 1.243.242.242 0 0 0 .106.209.233.233 0 0 0 .106.042.206.206 0 0 0 .235-.192c.02-.408-.635-1.294-.836-1.556a.227.227 0 0 0-.314-.059z" transform="translate(-2990.704 -2370.632)" style="fill:#f6cc5f"/>
        <path data-name="Path 183" d="m3538.284 2423.15 3.039 18.461-10.341 5.122c-.351.137-2.379-.022-2.381.366l-.312.595c0 .52.749-.754 1.251-.751l19.869.108-.385-5.16.4-17.522z" transform="translate(-3188.945 -2190.092)" style="fill:#facabd"/>
        <path data-name="Path 184" d="M3535.825 2594.971c-1.065 1.251-3.779-.307-4.042-.49a1 1 0 0 1-.3-.653c.247-1.819-2.082-2.665-2.322-2.751s-4.652 4.042-6.111 5.186-5.058.515-5.848.495-1.6 2.768-1.6 2.768l8.4 1.786 14.8-1.092-.866-5.966c-1.72-.799-2.111.717-2.111.717z" transform="translate(-3177.485 -2341.859)" style="fill:#e84b4e"/>
        <path data-name="Path 185" d="M3514.279 2678.88s-.322 1.217 0 1.565 7.092.856 8.213.938c1.091.079 13.579.626 14.915-.069l.069-1.74h-13.781z" transform="translate(-3176.153 -2421.214)" style="fill:#b92427"/>
        <path data-name="Path 186" d="M3638.652 2601.854a.216.216 0 0 0-.3.046.233.233 0 0 0 .065.314c.289.214 1.052.894 1.064 1.473a.243.243 0 0 0 .106.192.228.228 0 0 0 .122.042.207.207 0 0 0 .22-.214c-.029-.932-1.229-1.815-1.277-1.853z" transform="translate(-3288.38 -2351.561)" style="fill:#f6cc5f"/>
        <path data-name="Path 187" d="M3626.285 2612.7a.219.219 0 0 0-.311.036.231.231 0 0 0 .057.315c.457.349 1.111.991 1.132 1.326a.244.244 0 0 0 .1.184.24.24 0 0 0 .132.042.207.207 0 0 0 .209-.224c-.039-.671-1.104-1.518-1.319-1.679z" transform="translate(-3277.194 -2361.357)" style="fill:#f6cc5f"/>
        <path data-name="Path 188" d="M3615.493 2621.26a.222.222 0 0 0-.315.006.227.227 0 0 0 .027.318 4.062 4.062 0 0 1 1.042 1.428.248.248 0 0 0 .1.139.228.228 0 0 0 .176.038.209.209 0 0 0 .158-.263 4.585 4.585 0 0 0-1.188-1.666z" transform="translate(-3267.425 -2369.082)" style="fill:#f6cc5f"/>
        <path data-name="Path 189" d="M3606.428 2628.638a.221.221 0 0 0-.033.313 4.126 4.126 0 0 1 .736 1.244.242.242 0 0 0 .106.208.232.232 0 0 0 .106.042.205.205 0 0 0 .235-.192c.02-.408-.635-1.294-.836-1.556a.228.228 0 0 0-.314-.059z" transform="translate(-3259.49 -2375.772)" style="fill:#f6cc5f"/>
        <path data-name="Path 190" d="M3204.043 992.349c.186 2.213-2.57-3.739-2.57-3.739l-14.993 7.714s3.772 15.192 6.457 15.376 1.693-.461 5.52 0 3.643 2.857 6.512-2.58-1.111-18.982-.926-16.771z" transform="translate(-2880.026 -893.593)" style="fill:#f6901f"/>
        <path data-name="Path 191" d="M3354.2 955.393c-.022-4.44-.832-6.84-4.3-9.051s-14.206-3.732-14.206-3.732a12.86 12.86 0 0 1-3.149 1.172 9.6 9.6 0 0 1-5.153-.3s-14.117 2.351-15.045 4.795.371 20.015-1.272 32.449c-.705 5.318 1.744 7.364 2.955 8.033a3.53 3.53 0 0 0 .644.289h34.91a4.014 4.014 0 0 0 .91-.577 5.667 5.667 0 0 0 1.956-4.982c-.216-3.714 1.779-23.589 1.75-28.096z" transform="translate(-2992.517 -852.019)" style="fill:#fbd900"/>
        <path data-name="Path 192" d="M3314.288 1426.124c-.128.4-.289.929-.481 1.57-.106.37-.217.78-.339 1.227a84.253 84.253 0 0 0-2.589 21.1c0 6.818 2.356 84.343 2.378 84.714s13.618 1.394 14.956-.817c.866-1.443.193-2.9.289-4.907.056-1.072.238-2.213.293-3.56.111-2.654-1.3-3.908-.77-6.086a15.11 15.11 0 0 0 .239-4.473c-.427-6.679-.6-7.923 1.059-12.716s1.828-5.529 1.038-12.346c-.367-3.163.294-7.891 1.138-13.093.628-3.849 1.361-7.957 1.855-11.854.277-2.178.481-4.291.544-6.264.25-7.4.972-21.519 1.356-28.811.039-.791.077-1.5.111-2.117.006-.143.016-.276.022-.409.072-1.322.111-2.09.111-2.09h-20.888s-.121.324-.322.932z" transform="translate(-2992.456 -1288.162)" style="fill:#384197"/>
        <path data-name="Path 193" d="M3531.613 1448.234a85.032 85.032 0 0 0-3.671-18.428c-.25-.77-.481-1.465-.683-2.056-.122-.348-.233-.674-.333-.946-.373-1.006-.6-1.553-.6-1.553h-19.816l.106 1.99c.006.161.017.332.028.509.028.577.061 1.251.106 1.979.355 6.812.994 19.1 1.038 20.164a151.986 151.986 0 0 0 2.383 15.044c.355 1.68 2.9 35.881 4.234 42.467s1.809 9.257 1.642 14.6.234 12.73.234 12.73 6.81 1.042 9.253.86 7.469-1.145 7.469-1.145a30.666 30.666 0 0 0 0-4.573c-.168-3.138-.391-68.926-1.39-81.642z" transform="translate(-3169.261 -1288.216)" style="fill:#384197"/>
        <path data-name="Path 194" d="M3377.013 1425.25H3342.1s-.122.32-.323.929c-.128.4-.289.929-.481 1.57h36.642c-.122-.348-.233-.674-.333-.946-.365-1.003-.592-1.553-.592-1.553z" transform="translate(-3019.948 -1288.216)" style="fill:#396db3"/>
        <path data-name="Path 195" d="M3497.432 1423h-6.632a.192.192 0 0 0-.192.192v2.523a.192.192 0 0 0 .192.193h6.629a.192.192 0 0 0 .192-.193v-2.523a.192.192 0 0 0-.189-.192zm-.193 2.523H3491v-2.138h6.24z" transform="translate(-3154.891 -1286.183)" style="fill:#fff"/>
        <path data-name="Path 196" d="m3154.089 827.4-3.669 3.537s9.21 16.719 12.679 22.325c4.875 7.876 14.752 2.19 9.274-5.743-3.211-4.651-18.284-20.119-18.284-20.119z" transform="translate(-2847.436 -747.895)" style="fill:#fab995"/>
        <path data-name="Path 197" d="M3323.856 1036.414s-.539 3.968-.877 3.968c-.339-.017-3.929 5-3.929 5s2.083.81 8.389 1.65c.608.081 1.888.253 3.227.36 2.021.153 4.138.26 4.138.26l-.445-11.4z" transform="translate(-2999.84 -936.657)" style="fill:#fab995"/>
        <path data-name="Path 198" d="M3441.634 1041.513c0 2.6-1.483 4.824-1.894 5.893 2.021.153 4.138.26 4.138.26l-.445-11.4a9.4 9.4 0 0 0-1.799 5.247z" transform="translate(-3108.916 -936.666)" style="fill:#f5917e"/>
        <path data-name="Path 199" d="M3482.725 1143.342c-2.769.138-10.358 0-10.358 0l-.154-1.127s-1.575 1.265-1.16 2.843 2.916 1.464 6.158.91 5.778 1.175 7.722.415a25.882 25.882 0 0 1 5.761-1.325c2.5-.426 4.454-4.138 4.454-4.138a36.121 36.121 0 0 1-4.107 1.52c-2.287.694-5.551.76-8.316.902z" transform="translate(-3137.154 -1031.246)" style="fill:#f6901f"/>
        <path data-name="Path 200" d="M3483.38 990.43c-1.145.369-.558 1.026-2.9 1.372s-3.325.448-3.632.829 0 1.135 0 1.135l14.306-2.863s-6.63-.842-7.774-.473z" transform="translate(-3142.331 -895.153)" style="fill:#f6901f"/>
        <path data-name="Path 201" d="M3372.075 1355.068c-3.368-.586-6.037-2.93-8.891-4.578a5.331 5.331 0 0 0-2.877-.962c-1.111.171-1.493 1.57-2.032 2.378-.788 1.183-1.622 1.251-2.972.989a3.613 3.613 0 0 0-1.333-.115 3.82 3.82 0 0 0-1.54.829 7.792 7.792 0 0 1-2.472 1.221 30.5 30.5 0 0 1-4.17.608 9.441 9.441 0 0 0-2.848 1.067 3.514 3.514 0 0 0 .644.289h34.91a4.029 4.029 0 0 0 .91-.577 8.6 8.6 0 0 0-2.182-.857c-1.698-.317-3.448.007-5.147-.292z" transform="translate(-3021.431 -1219.766)" style="fill:#f6901f"/>
        <path data-name="Path 202" d="M3447.077 1664.361c-1.388.829-.481 3.455.733 6.772s-.939 2.9 0 6.635 1.706 3.175 2.433 8.155a13.2 13.2 0 0 0 3.726 6.884c.627-3.849 1.36-7.957 1.855-11.854 0 0-1.36-8.437-3.388-10.511s-3.97-6.911-5.359-6.081z" transform="translate(-3114.915 -1504.233)" style="fill:#27265f"/>
        <path data-name="Path 203" d="m3476.54 828.345-.23 11.032s.053 1.732 3.709 2.093c3.08.3 6.712-2.649 6.712-2.649l-.363-11.591z" transform="translate(-3141.967 -747.742)" style="fill:#fab995"/>
        <path data-name="Path 204" d="m3476.29 898.359 7.077-5.929-7.012 2.761z" transform="translate(-3141.949 -806.668)" style="fill:#f5917e"/>
        <path data-name="Path 205" d="M3405.856 717.156a1.96 1.96 0 0 0 .794 1.618l3.862 2.839a1.936 1.936 0 0 0 1.873.245l7.354-2.894a1.962 1.962 0 0 0 1.239-1.778l.689-16.7-15.411 1.45z" transform="translate(-3078.292 -633.197)" style="fill:#fab995"/>
        <g data-name="Group 17" style="opacity:.32">
            <path data-name="Path 206" d="m3406.3 799.177-.12 5.691a2.846 2.846 0 1 0 .12-5.691z" transform="translate(-3078.585 -722.388)" style="fill:#ee8171"/>
        </g>
        <path data-name="Path 207" d="m3444.353 769.321-1.947-.04.734-5.923a.218.218 0 1 0-.433-.054l-.764 6.158a.217.217 0 0 0 .051.169.22.22 0 0 0 .161.076l2.189.045a.218.218 0 1 0 .009-.437z" transform="translate(-3110.906 -689.785)" style="fill:#de7360"/>
        <path data-name="Path 208" d="M3481.27 747.764c0 .829 2.723 1.427 2.878.674.258-1.253-2.874-1.987-2.878-.674z" transform="translate(-3146.45 -675.295)" style="fill:#100f0e"/>
        <path data-name="Path 209" d="M3405.073 746.39c.365.674 2.829-.06 2.619-.736-.347-1.124-3.198-.324-2.619.736z" transform="translate(-3077.515 -673.523)" style="fill:#100f0e"/>
        <g data-name="Group 18" transform="translate(335.962 76.832)" style="opacity:.32">
            <ellipse data-name="Ellipse 23" cx="2.847" cy="2.843" rx="2.847" ry="2.843" transform="rotate(-89.93 2.851 2.848)" style="fill:#ee8171"/>
        </g>
        <path data-name="Path 210" d="M3483.562 776.87c-.334 0-.6.468-.6 1.042s.273 1.039.607 1.038.6-.467.6-1.041-.269-1.039-.607-1.039z" transform="translate(-3147.977 -702.228)" style="fill:#281c1c"/>
        <path data-name="Path 211" d="M3421.552 775.54c-.334 0-.6.467-.6 1.041s.273 1.039.607 1.038.6-.467.6-1.041-.273-1.039-.607-1.038z" transform="translate(-3091.934 -701.026)" style="fill:#281c1c"/>
        <path data-name="Path 212" d="M334.75 81.776a2.213 2.213 0 0 0-.764.028 6.069 6.069 0 0 1-2.338-.078 2.716 2.716 0 0 0-.427-.073.737.737 0 0 0-.229.036.665.665 0 0 0-.334.778 2.092 2.092 0 0 0 .881 1.313 2.506 2.506 0 0 0 .993.416 2.728 2.728 0 0 0 2.3-.659 2.081 2.081 0 0 0 .235-.263 1.134 1.134 0 0 0 .184-1.175.647.647 0 0 0-.501-.323z"/>
        <path data-name="Path 213" d="M3446.443 849.881a6.071 6.071 0 0 1-2.338-.078 2.711 2.711 0 0 0-.427-.073.663.663 0 0 0 .069.511.819.819 0 0 0 .459.261 5.09 5.09 0 0 0 2.236.115.973.973 0 0 0 .565-.236.815.815 0 0 0 .2-.527 2.213 2.213 0 0 0-.764.028z" transform="translate(-3112.457 -768.076)" style="fill:#fff"/>
        <path data-name="Path 214" d="M3448.454 865a2.043 2.043 0 0 0-1.293.625 2.51 2.51 0 0 0 .993.416 2.729 2.729 0 0 0 2.3-.659 3.034 3.034 0 0 0-2-.382z" transform="translate(-3115.622 -781.844)" style="fill:#d46b5e"/>
        <g data-name="Group 19" style="opacity:.15">
            <path data-name="Path 215" d="M3558.533 721.566c-.468-.215-.416 1.312.142 1.309s.325-1.094-.142-1.309z" transform="translate(-3215.993 -652.226)" style="fill:#fff"/>
        </g>
        <g data-name="Group 20" style="opacity:.15">
            <path data-name="Path 216" d="M3414.788 680.346c.847.417 2.585-1.355 2.09-1.743-.578-.454-3.033 1.277-2.09 1.743z" transform="translate(-3086.172 -613.349)" style="fill:#fff"/>
        </g>
        <g data-name="Group 21" style="opacity:.15">
            <path data-name="Path 217" d="M3432.139 690.235c.66.263 1.636-.554 1.212-.953s-1.871.686-1.212.953z" transform="translate(-3101.893 -622.99)" style="fill:#fff"/>
        </g>
        <path data-name="Path 218" d="M3395.28 636.634a8.495 8.495 0 0 0-2.422-.227 4.48 4.48 0 0 0-2.309-3.684c.962.629 1.5 3.259 1.5 3.259s-.077-.315-2.186-2.026-6.872-1.452-10.516-1.208a19.952 19.952 0 0 1-6.44-.6 7.01 7.01 0 0 0 1.438 2.036 17.756 17.756 0 0 1-4.469-.062 22.357 22.357 0 0 0 2.078 3.588 11.267 11.267 0 0 1-1.165-.114 6.694 6.694 0 0 0 5.042 3.3c3.659.486 5.975-.866 7.843-.891a5.451 5.451 0 0 1 3.233 1.1 12.5 12.5 0 0 0 3.45 9.623l.726 1.732c5.821-8.6 2.588-15.051 2.588-15.051s2.312-.487 1.609-.775z" transform="translate(-3045.779 -571.434)" style="fill:#242638"/>
        <path data-name="Path 219" d="M3462.2 610.5c-2.685-1.278-8.186-.932-10.2-1.875a9.7 9.7 0 0 0 4.6 3.26 37.4 37.4 0 0 1 5.711 2.666l3.958.171a9.887 9.887 0 0 0-4.069-4.222z" transform="translate(-3119.996 -550.168)" style="fill:#242638"/>
        <path data-name="Path 220" d="M3397.591 694.808c-1.059 1.636.449 8.372.449 8.372a52.59 52.59 0 0 0 .57-6.852s.042-3.154-1.019-1.52z" transform="translate(-3070.483 -627.638)" style="fill:#242638"/>
        <g data-name="Group 22" style="opacity:.25">
            <path data-name="Path 221" d="M3429.485 686.715c-.006-.021-.008-.03 0 0z" transform="translate(-3099.643 -620.731)" style="fill:#fff"/>
        </g>
        <ellipse data-name="Ellipse 24" cx="3.596" cy="3.602" rx="3.596" ry="3.602" transform="translate(341.791 75.862)" style="fill:#fab995"/>
        <path data-name="Path 222" d="M3577.415 805.126c-.936.109-2.653.795-2.45 2.615a3.079 3.079 0 0 0 .548 1.523.222.222 0 0 0 .17.088.214.214 0 0 0 .135-.044.218.218 0 0 0 .044-.306 2.655 2.655 0 0 1-.464-1.309c-.2-1.841 1.972-2.122 2.067-2.133a.218.218 0 0 0-.05-.434z" transform="translate(-3231.114 -727.764)" style="fill:#de7360"/>
        <path data-name="Path 223" d="M3577.437 822.824a1.6 1.6 0 0 0-2.3.507.218.218 0 1 0 .36.245 1.166 1.166 0 0 1 1.692-.393.219.219 0 1 0 .245-.362z" transform="translate(-3231.252 -743.5)" style="fill:#de7360"/>
        <path data-name="Path 224" d="M3092.433 734.544a25.009 25.009 0 0 0-1.884-3.427c-.919-.975-5.382-4.462-6.249-3.4-.5.615 1.029 1.856 2.2 2.677-1.251-.748-3.068-1.63-3.536-.777-.306.56.417 1.272 1.362 1.91-.8-.279-1.5-.324-1.7.228-.209.577.893 1.463 2.012 2.18-.888-.4-1.764-.635-1.979-.112-.517 1.265 3.5 1.656 4.629 4.55a9.8 9.8 0 0 0 2.567 4.031 13.4 13.4 0 0 0 1.553 1.089 16.734 16.734 0 0 0 3.482-4.035c-.241-.623-.559-1.334-.962-2.149s-.894-1.726-1.495-2.765z" transform="translate(-2786.145 -657.626)" style="fill:#fab995"/>
        <path data-name="Path 225" d="M3115.925 801.6a15.431 15.431 0 0 0-1.925-1.09c.963.612 1.925 1.09 1.925 1.09z" transform="translate(-2814.521 -723.593)" style="fill:#f1c8ac"/>
        <path data-name="Path 226" d="M3132.725 767.878c-.045-.032-.5-.357-1.1-.718.57.399 1.05.689 1.1.718z" transform="translate(-2830.445 -693.452)" style="fill:#f1c8ac"/>
        <path data-name="Path 227" d="M3113.869 779.294a14.341 14.341 0 0 0-2.759-1.474 19.571 19.571 0 0 0 2.759 1.474z" transform="translate(-2811.909 -703.086)" style="fill:#f5917e"/>
        <path data-name="Path 228" d="M3112.619 758.638c-.446-.289-.9-.558-1.37-.8a9.113 9.113 0 0 0-1.919-.776 19.518 19.518 0 0 1 3.215 1.7c.446.287.9.55 1.347.836.011.007.02-.01.01-.017-.417-.324-.838-.656-1.283-.943z" transform="translate(-2810.299 -684.323)" style="fill:#f5917e"/>
        <path data-name="Path 229" d="M3110.995 777.713c-.048-.018-.044.008 0 .035.577.349 2.812 1.763 3.368 2.138.009.006.014-.007.008-.014a11.178 11.178 0 0 0-3.376-2.159z" transform="translate(-2811.773 -702.984)" style="fill:#f5917e"/>
        <path data-name="Path 230" d="M3112.077 799.73c-.048-.019-.04.018.007.045.9.513 1.6.909 2.635 1.577a.018.018 0 0 0 .022-.029 8.019 8.019 0 0 0-2.664-1.593z" transform="translate(-2812.754 -722.883)" style="fill:#f5917e"/>
        <path data-name="Path 231" d="M3167.3 750.061c.272-.872-.284-1.616-1.17-.871s-.95 1.236-.95 1.236c.55.584 2.015 4.127 3.047 5.546.002-.072-1.227-4.946-.927-5.911z" transform="translate(-2860.776 -676.935)" style="fill:#fab995"/>
        <g data-name="Group 23" style="opacity:.55">
            <path data-name="Path 232" d="M3018.128 821.877c-.163.114-.219.289-.128.385a.382.382 0 0 0 .462-.024c.163-.112.22-.289.128-.385a.382.382 0 0 0-.462.024z" transform="translate(-2727.72 -742.822)" style="fill:#8dabd9"/>
        </g>
        <path data-name="Path 233" d="m3033.948 830.018-.7-.447a.486.486 0 0 0-.523.818l.7.446a.485.485 0 0 0 .524-.817z" transform="translate(-2740.866 -749.787)" style="fill:#8dabd9"/>
        <path data-name="Path 234" d="M2952.207 797.24a21.844 21.844 0 0 0-4.131-1.293 6.977 6.977 0 0 0-7.217 6.312c-.607 4.18 2.071 4.96 4.209 1.971a26.853 26.853 0 0 1 2.791.226c.925.166 1.636-.846.91-1.251s-2.287-1.07-2.287-1.07 1.559.169 3.125.448 1.744-.854 1.083-1.119-3-1.365-3-1.365 2.615.481 3.527.637a.684.684 0 0 0 .339-1.324c-.81-.313-2.8-1.149-2.8-1.149s1.2.179 2.631.452 1.588-1.148.82-1.475z" transform="translate(-2657.962 -719.448)" style="fill:#fab995"/>
        <path data-name="Path 235" d="M3009.973 813.991a14.349 14.349 0 0 0-1.54-.458.213.213 0 0 0-.237.1.2.2 0 0 0-.021.055.216.216 0 0 0 .159.259 13.91 13.91 0 0 1 1.491.445.207.207 0 0 0 .275-.129.217.217 0 0 0-.127-.272z" transform="translate(-2718.874 -735.357)" style="fill:#f5917e"/>
        <path data-name="Path 236" d="m2998.821 832.774-1.58-.5a.214.214 0 0 0-.252.1.155.155 0 0 0-.016.039.214.214 0 0 0 .138.269l1.58.5a.212.212 0 0 0 .27-.14.216.216 0 0 0-.14-.268z" transform="translate(-2708.745 -752.287)" style="fill:#f5917e"/>
        <path data-name="Path 237" d="m2987.875 855.377-1.337-.338a.215.215 0 0 0-.24.1.211.211 0 0 0-.021.052.216.216 0 0 0 .156.262l1.337.337a.215.215 0 1 0 .1-.417z" transform="translate(-2699.083 -772.87)" style="fill:#f5917e"/>
        <path data-name="Rectangle 50" transform="translate(173.327 83.276)" style="fill:#98b0db" d="M0 0h6.517v11.941H0z"/>
        <path data-name="Rectangle 51" transform="translate(160.084 81.398)" style="fill:#98b0db" d="M0 0h6.516v13.818H0z"/>
        <path data-name="Rectangle 52" transform="translate(146.839 90.129)" style="fill:#98b0db" d="M0 0h6.517v5.087H0z"/>
        <path data-name="Rectangle 53" transform="translate(133.597 93.647)" style="fill:#98b0db" d="M0 0h6.517v1.569H0z"/>
        <path data-name="Rectangle 54" transform="translate(176.384 67.457)" style="fill:#4d5ba7" d="M0 0h6.516v27.76H0z"/>
        <path data-name="Rectangle 55" transform="translate(163.139 67.457)" style="fill:#4d5ba7" d="M0 0h6.517v27.76H0z"/>
        <path data-name="Rectangle 56" transform="translate(149.896 76.754)" style="fill:#4d5ba7" d="M0 0h6.517v18.463H0z"/>
        <path data-name="Rectangle 57" transform="translate(136.652 83.428)" style="fill:#4d5ba7" d="M0 0h6.517v11.789H0z"/>
        <path data-name="Path 238" d="m1415.527 659.314-1.735 1.4-8.577-8.2-14.885 13.138-3.849-5.481-17.142 16.782v9.835l1.361-1.34 2.528-2.424.026-.1 12.4-12.22 3.646 5.19 15.76-13.909 8.542 8.168 5.931-5.142 2.557 4.157 3.539-10.282 1.376-5.521-13.61 1.794z" transform="translate(-1237.743 -589.834)" style="fill:#20bfe8"/>
        <path data-name="Path 239" d="m1430.64 684.877-4.575 3.966-8.567-8.193-15.134 13.357-3.791-5.4-15.093 14.775v4.264l14.735-14.526 3.708 5.277 15.509-13.687 8.551 8.179 6.268-5.429 1.6 2.571 3.264-8.775-8.077 1.05z" transform="translate(-1250.522 -615.267)" style="fill:#cd1482"/>
        <path data-name="Path 240" d="m1514.78 596.56 1.293.253.3-1.681-1.293-.252z" transform="translate(-1369.188 -537.75)" style="fill:#33bec3"/>
        <path data-name="Path 241" d="m1479.93 606.564 1.241 1.113.857-1.044-1.241-1.113z" transform="translate(-1337.691 -547.366)" style="fill:#33bec3"/>
        <path data-name="Path 242" d="m1474.22 642.7.435 1.3 1.544-.565-.435-1.3z" transform="translate(-1332.531 -580.462)" style="fill:#33bec3"/>
        <path data-name="Path 243" d="m1502.12 666.709 1.294.255.3-1.678-1.293-.256z" transform="translate(-1357.746 -601.15)" style="fill:#33bec3"/>
        <path data-name="Path 244" d="m1531.75 653.1 1.239 1.114.858-1.044-1.239-1.114z" transform="translate(-1384.525 -589.428)" style="fill:#33bec3"/>
        <path data-name="Path 245" d="m1538.7 619.055.435 1.3 1.544-.565-.435-1.3z" transform="translate(-1390.806 -559.088)" style="fill:#33bec3"/>
        <path data-name="Path 246" d="M1485.62 606.9a3.371 3.371 0 0 0-.816 4.545 3.1 3.1 0 0 0 2.585 1.421 3.022 3.022 0 0 0 1.763-.569 3.369 3.369 0 0 0 .817-4.543 3.116 3.116 0 0 0-4.349-.854zm2.791 4.261a1.8 1.8 0 0 1-2.517-.492 1.956 1.956 0 0 1 .472-2.635 1.758 1.758 0 0 1 1.02-.329 1.794 1.794 0 0 1 1.5.827 1.95 1.95 0 0 1-.475 2.626z" transform="translate(-1341.604 -548.12)" style="fill:#33bec3"/>
        <path data-name="Path 247" d="m1303.41 646.04 2.964.582.543-3.019-2.964-.583z" transform="translate(-1178.157 -581.258)" style="fill:#33bec3"/>
        <path data-name="Path 248" d="m1332.87 588.664 1.7 2.6 2.425-1.734-1.7-2.6z" transform="translate(-1204.782 -530.565)" style="fill:#33bec3"/>
        <path data-name="Path 249" d="m1394.91 580.688 2.888.565.555-3.1-2.887-.566z" transform="translate(-1260.853 -522.124)" style="fill:#33bec3"/>
        <path data-name="Path 250" d="m1441.3 610.147 1.659 2.536 2.487-1.778-1.658-2.535z" transform="translate(-1302.779 -549.942)" style="fill:#33bec3"/>
        <path data-name="Path 251" d="m1456.9 676.209 2.964.579.541-3.019-2.963-.579z" transform="translate(-1316.877 -608.524)" style="fill:#33bec3"/>
        <path data-name="Path 252" d="m1420.99 723.4 1.7 2.6 2.425-1.735-1.7-2.6z" transform="translate(-1284.423 -652.339)" style="fill:#33bec3"/>
        <path data-name="Path 253" d="m1366.05 741.085 2.888.568.557-3.095-2.888-.568z" transform="translate(-1234.77 -667.089)" style="fill:#33bec3"/>
        <path data-name="Path 254" d="m1312.37 702.238 1.659 2.534 2.488-1.779-1.66-2.533z" transform="translate(-1186.255 -633.17)" style="fill:#33bec3"/>
        <path data-name="Path 255" d="M1328.183 595.63a7.217 7.217 0 0 0-4.215 1.364 8.044 8.044 0 0 0-1.953 10.856 7.392 7.392 0 0 0 6.179 3.4 7.21 7.21 0 0 0 4.212-1.362 8.047 8.047 0 0 0 1.954-10.859 7.4 7.4 0 0 0-6.177-3.399zm2.566 11.728a4.374 4.374 0 0 1-2.554.826 4.49 4.49 0 0 1-3.753-2.066 4.882 4.882 0 0 1 1.187-6.589 4.369 4.369 0 0 1 2.556-.828 4.491 4.491 0 0 1 3.753 2.066 4.889 4.889 0 0 1-1.189 6.591z" transform="translate(-1193.796 -538.428)" style="fill:#33bec3"/>
        <g data-name="Group 24" transform="translate(89.786 121.022)" style="opacity:.3">
            <rect data-name="Rectangle 58" width="121.366" height="71.933" rx="35.966" style="fill:#2d2b6e"/>
        </g>
        <rect data-name="Rectangle 59" width="121.366" height="71.933" rx="35.966" transform="translate(86.181 118.009)" style="fill:#2d2b6e"/>
        <path data-name="Path 256" d="M1010.313 1294.27h-27.5a1.7 1.7 0 0 0-1.7 1.7v22.93a1.7 1.7 0 0 0 1.7 1.7h27.5a1.7 1.7 0 0 0 1.7-1.7v-22.93a1.7 1.7 0 0 0-1.7-1.7z" transform="translate(-886.871 -1169.84)" style="fill:#f9a61a"/>
        <path data-name="Path 257" d="M1085.382 1330.83a6.028 6.028 0 1 0 6.033 6.028 6.028 6.028 0 0 0-6.033-6.028z" transform="translate(-975.666 -1202.882)" style="fill:#fff"/>
        <path data-name="Path 258" d="M1048.85 1468.69a9.925 9.925 0 0 0-9.911 9.379h19.828a9.925 9.925 0 0 0-9.917-9.379z" transform="translate(-939.135 -1327.476)" style="fill:#fff"/>
        <rect data-name="Rectangle 60" width="63.964" height="3.123" rx="1.561" transform="translate(133.696 126.299)" style="fill:#384197"/>
        <rect data-name="Rectangle 61" width="63.964" height="3.017" rx="1.508" transform="translate(133.696 133.588)" style="fill:#384197"/>
        <rect data-name="Rectangle 62" width="63.964" height="3.159" rx="1.58" transform="translate(133.696 140.628)" style="fill:#384197"/>
        <ellipse data-name="Ellipse 25" cx="12.293" cy="12.312" rx="12.293" ry="12.312" transform="translate(176.494 158.988)" style="fill:#cd1686"/>
        <path data-name="Path 259" d="m1853.87 1661.767 10.566 6.3-2.458-12.067a12.31 12.31 0 0 0-8.108 5.767z" transform="translate(-1675.648 -1496.762)" style="fill:#20bfe8"/>
        <path data-name="Path 260" d="M1835.92 1722.181a12.31 12.31 0 0 0 12.28 12.319v-12.363l-10.547-6.255a12.264 12.264 0 0 0-1.733 6.299z" transform="translate(-1659.426 -1550.88)" style="fill:#384197"/>
        <path data-name="Path 261" d="M1963.51 1749.935v12.358h.015a12.327 12.327 0 0 0 11.837-15.653z" transform="translate(-1774.738 -1578.68)" style="fill:#d4cae3"/>
        <ellipse data-name="Ellipse 26" cx=".953" cy=".955" rx=".953" ry=".955" transform="translate(182.241 162.312)" style="fill:#384197"/>
        <path data-name="Path 262" d="M1735.444 1616.75a.116.116 0 0 0-.11-.074h-14.626a.118.118 0 1 0 0 .236h14.548l3.014 7.62a.117.117 0 0 0 .11.075.11.11 0 0 0 .042-.009.117.117 0 0 0 .066-.153z" transform="translate(-1555.183 -1461.221)" style="fill:#384197"/>
        <path data-name="Rectangle 63" transform="translate(161.404 151.416)" style="fill:#384197" d="M0 0h13.154v3.417H0z"/>
        <path data-name="Path 263" d="M1052.546 1669.26H1019.7a.83.83 0 0 0-.827.828v.77a.83.83 0 0 0 .827.828h32.85a.83.83 0 0 0 .827-.828v-.77a.829.829 0 0 0-.831-.828z" transform="translate(-920.997 -1508.746)" style="fill:#384197"/>
        <path data-name="Path 264" d="M1052.546 1769H1019.7a.829.829 0 0 0-.827.828v.77a.829.829 0 0 0 .827.828h32.85a.829.829 0 0 0 .827-.828v-.77a.83.83 0 0 0-.831-.828z" transform="translate(-920.997 -1598.889)" style="fill:#384197"/>
        <path data-name="Path 265" d="M1052.546 1828.36H1019.7a.829.829 0 0 0-.827.828v.77a.831.831 0 0 0 .827.829h32.85a.83.83 0 0 0 .827-.829v-.77a.83.83 0 0 0-.827-.828z" transform="translate(-920.997 -1652.537)" style="fill:#384197"/>
        <path data-name="Path 266" d="M1039.491 1716.9H1019.7a.83.83 0 0 0-.827.828v.77a.829.829 0 0 0 .827.828h19.795a.829.829 0 0 0 .827-.828v-.77a.83.83 0 0 0-.831-.828z" transform="translate(-920.997 -1551.802)" style="fill:#384197"/>
        <path data-name="Path 267" d="M1016.536 1615.4h-38.017a2.79 2.79 0 0 0-2.759 2.814v23.186a2.789 2.789 0 0 0 2.759 2.814h38.017a2.788 2.788 0 0 0 2.758-2.814v-23.191a2.789 2.789 0 0 0-2.758-2.809zm1.414 26a1.43 1.43 0 0 1-1.414 1.443h-38.017a1.431 1.431 0 0 1-1.414-1.443v-23.191a1.431 1.431 0 0 1 1.414-1.443h38.017a1.43 1.43 0 0 1 1.414 1.443z" transform="translate(-882.036 -1460.069)" style="fill:#384197"/>
        <ellipse data-name="Ellipse 27" cx="11.966" cy="12.208" rx="11.966" ry="12.208" transform="translate(145.33 159.549)" style="fill:#cd1686"/>
        <path data-name="Path 268" d="M1553.425 1659.23h-.108v12.13l-8.727 8.286a11.819 11.819 0 0 0 8.834 4 12.208 12.208 0 0 0 0-24.412z" transform="translate(-1396.129 -1499.682)" style="fill:#384197"/>
        <path data-name="Path 269" d="M1635.147 1659.23h-.107v11.54l.036.614 11.534-3.445a12 12 0 0 0-11.463-8.709z" transform="translate(-1477.876 -1499.682)" style="fill:#20bfe8"/>
        <path data-name="Path 270" d="M1970.617 1959.24a5.924 5.924 0 0 0-4.33 1.918c-.866.953-1.4 2.178-2.335 3.069-2.132 2.042-5.6 1.755-8.151 3.236a9.747 9.747 0 0 0-3.725 4.557 33.148 33.148 0 0 0-1.6 4.271 6.327 6.327 0 0 1-.836 2.346c-1.458 1.876-4.177 2.581-4.773 5.112a6.538 6.538 0 0 0 .639 4 19.94 19.94 0 0 0 5.318 7.254l1.027 5.659c2.824.447 5.536-1.143 7.907-2.744 2.406-1.626 4.991-3.718 5.182-6.621.152-2.3-1.282-4.665-.47-6.823.643-1.71 2.447-2.615 3.867-3.761a7.469 7.469 0 0 0 2.9-4.759c.228-1.933-.464-3.8-.241-5.752a11.8 11.8 0 0 1 1.975-5.253c.8-1.179 1.463-2.694.872-3.991a3.456 3.456 0 0 0-3.226-1.718z" transform="translate(-1757.79 -1770.823)" style="fill:#41a25b"/>
        <path data-name="Path 271" d="m2022.84 2001.761-.28 2.554.3.033.28-2.546c3.053-18.784 19.8-37.93 19.968-38.122l-.226-.2c-.168.192-16.972 19.402-20.042 38.281z" transform="translate(-1828.106 -1774.655)" style="fill:#1e8547"/>
        <path data-name="Path 272" d="M2218.66 1960.282a10.451 10.451 0 0 1 .217 1.925h.226a10.73 10.73 0 0 0-.222-1.962z" transform="translate(-2005.336 -1771.726)" style="fill:#1e8547"/>
        <path data-name="Path 273" d="M2204.75 1959.612a17.358 17.358 0 0 1 .362 3.252h.226a17.638 17.638 0 0 0-.367-3.294z" transform="translate(-1992.765 -1771.121)" style="fill:#1e8547"/>
        <path data-name="Path 274" d="M2196.21 1961.557a28.236 28.236 0 0 1 .572 4.175l.224-.015a28.315 28.315 0 0 0-.577-4.208z" transform="translate(-1985.046 -1772.874)" style="fill:#1e8547"/>
        <path data-name="Path 275" d="m2208.9 1989.759.031.223c1.233-.171 2.484-.3 3.718-.4l-.016-.225c-1.241.095-2.497.23-3.733.402z" transform="translate(-1996.515 -1798.044)" style="fill:#1e8547"/>
        <path data-name="Path 276" d="m2223.653 1975.838-1.213.115.021.224 1.217-.115a6.81 6.81 0 0 1 .991-.045l-.011-.226a7.122 7.122 0 0 0-1.005.047z" transform="translate(-2008.752 -1785.779)" style="fill:#1e8547"/>
        <path data-name="Path 277" d="m2195.69 2008.387.019.225c1.5-.134 3.024-.24 4.534-.316l-.011-.226c-1.512.077-3.04.186-4.542.317z" transform="translate(-1984.576 -1814.954)" style="fill:#1e8547"/>
        <path data-name="Path 278" d="m2188.68 2018.775.015.225a61.75 61.75 0 0 1 4.811-.136v-.226a63.13 63.13 0 0 0-4.826.137z" transform="translate(-1978.241 -1824.502)" style="fill:#1e8547"/>
        <path data-name="Path 279" d="M2177.45 1971.932a6.91 6.91 0 0 1-.091-.808c-.015-.2-.03-.4-.056-.594l-.224.03c.026.193.04.385.055.577a7.253 7.253 0 0 0 .1.834 7.137 7.137 0 0 0 .2.751l.84 2.721.216-.067-.841-2.724a7.149 7.149 0 0 1-.199-.72z" transform="translate(-1967.757 -1781.026)" style="fill:#1e8547"/>
        <path data-name="Rectangle 64" transform="rotate(-15.56 805.313 -662.595)" style="fill:#1e8547" d="M0 0h.225v5.265H0z"/>
        <path data-name="Path 280" d="M2144.29 2009.8a498.422 498.422 0 0 1 1.593 5.127l.216-.065a440.337 440.337 0 0 0-1.594-5.13z" transform="translate(-1938.122 -1816.454)" style="fill:#1e8547"/>
        <path data-name="Path 281" d="m2137.255 2021.42-1.333-3.81-.213.075 1.333 3.809c.084.242.171.491.243.74.06.2.11.41.151.616l.221-.044c-.042-.212-.1-.425-.156-.635a13.753 13.753 0 0 0-.246-.751z" transform="translate(-1930.368 -1823.576)" style="fill:#1e8547"/>
        <path data-name="Path 282" d="m2160.61 2053.211.027.224a85.383 85.383 0 0 0 5.831-.9l-.042-.221a85.563 85.563 0 0 1-5.816.897z" transform="translate(-1952.872 -1854.937)" style="fill:#1e8547"/>
        <path data-name="Path 283" d="m2173 2037.665.032.223c1.723-.241 3.475-.469 5.2-.674l-.027-.224c-1.728.202-3.481.429-5.205.675z" transform="translate(-1964.07 -1841.091)" style="fill:#1e8547"/>
        <path data-name="Path 284" d="m2140 2082.273.039.222a41.658 41.658 0 0 1 7.181-.831v-.225h-.1a41 41 0 0 0-7.12.834z" transform="translate(-1934.245 -1881.264)" style="fill:#1e8547"/>
        <path data-name="Path 285" d="m2124 2109.422.022.224c2.941-.3 5.984-.606 8.986-.832l-.017-.225c-3.007.226-6.05.535-8.991.833z" transform="translate(-1919.785 -1905.801)" style="fill:#1e8547"/>
        <path data-name="Path 286" d="M2118.812 2130.229c-.408.032-.82.076-1.241.122-2.309.255-4.637.538-6.92.841l.03.224c2.281-.3 4.608-.586 6.915-.84.421-.047.83-.09 1.236-.122a20.347 20.347 0 0 1 2.207-.051l.008-.226a20.579 20.579 0 0 0-2.235.052z" transform="translate(-1907.719 -1925.302)" style="fill:#1e8547"/>
        <path data-name="Path 287" d="m2104.46 2145.485.025.224c3.512-.4 7.086-.662 10.622-.783l-.008-.226c-3.542.125-7.123.386-10.639.785z" transform="translate(-1902.125 -1938.437)" style="fill:#1e8547"/>
        <path data-name="Path 288" d="m2092.09 2164.377.039.223a84.393 84.393 0 0 1 10.889-1.155l-.009-.226a84.9 84.9 0 0 0-10.919 1.158z" transform="translate(-1890.946 -1955.174)" style="fill:#1e8547"/>
        <path data-name="Path 289" d="M2079.044 2194.961c-.493.062-1 .125-1.5.227a9.971 9.971 0 0 0-1.076.283l.069.215a9.585 9.585 0 0 1 1.052-.276c.488-.1.993-.164 1.484-.225l6.465-.81-.029-.224z" transform="translate(-1876.828 -1983.128)" style="fill:#1e8547"/>
        <path data-name="Path 290" d="M2063.19 2232.732a50.172 50.172 0 0 0-6.52 1.443l.068.216a49.849 49.849 0 0 1 6.492-1.437 19.072 19.072 0 0 1 2.117-.289l-.012-.225a18.813 18.813 0 0 0-2.145.292z" transform="translate(-1858.934 -2017.734)" style="fill:#1e8547"/>
        <path data-name="Path 291" d="M2122.68 2023.973q.91 3.163 1.839 6.32l.217-.063q-.927-3.158-1.839-6.319z" transform="translate(-1918.592 -1829.27)" style="fill:#1e8547"/>
        <path data-name="Path 292" d="M2096.322 2033.681a7.992 7.992 0 0 0-.8-2.151l-.192.117a7.95 7.95 0 0 1 .774 2.092l.024.1c.538 2 1.161 4.019 1.769 5.991l.108-.034.1-.056c-.6-1.947-1.223-3.96-1.759-5.96z" transform="translate(-1893.873 -1836.156)" style="fill:#1e8547"/>
        <path data-name="Path 293" d="m2069.831 2040-.211.083a186.883 186.883 0 0 1 2.527 6.889c.331.962.674 1.988.933 3.025l.219-.055c-.261-1.045-.607-2.077-.94-3.044a181.999 181.999 0 0 0-2.528-6.898z" transform="translate(-1870.638 -1843.811)" style="fill:#1e8547"/>
        <path data-name="Path 294" d="m2035.83 2064.393 4.651 11.831.21-.083-4.652-11.831z" transform="translate(-1840.099 -1865.782)" style="fill:#1e8547"/>
        <path data-name="Path 295" d="M2026.149 2093.851a217.379 217.379 0 0 1-3.464-7.061l-.205.1a221.921 221.921 0 0 0 3.464 7.068l.068.133a16.854 16.854 0 0 1 1.642 4.008l.22-.048a16.964 16.964 0 0 0-1.663-4.064z" transform="translate(-1828.034 -1886.099)" style="fill:#1e8547"/>
        <path data-name="Path 296" d="m2007.331 2119.34-.2.1 4.555 8.79a19.272 19.272 0 0 1 .929 1.974l.211-.08a19.259 19.259 0 0 0-.939-2z" transform="translate(-1814.161 -1915.517)" style="fill:#1e8547"/>
        <path data-name="Path 297" d="M1989.762 2181.113a35.256 35.256 0 0 0-1.076-1.932c-.2-.347-.405-.695-.6-1.046a62.641 62.641 0 0 1-.911-1.708 24.054 24.054 0 0 0-2.791-4.507l-.172.146a23.67 23.67 0 0 1 2.767 4.466c.294.565.6 1.149.915 1.714.193.352.4.7.6 1.05.364.623.74 1.266 1.068 1.919.14.276.27.555.4.834l.261.553.2-.1-.261-.553a30.29 30.29 0 0 0-.4-.836z" transform="translate(-1793.446 -1963.037)" style="fill:#1e8547"/>
        <path data-name="Path 298" d="M1957.583 2197.993c-.23-.333-.453-.674-.674-1.01a18.415 18.415 0 0 0-2.391-3.113l-.158.161a18.179 18.179 0 0 1 2.361 3.08c.224.34.448.68.679 1.014.657.952 1.381 1.877 2.081 2.773a40.924 40.924 0 0 1 2.876 4l.192-.116a40.988 40.988 0 0 0-2.892-4.026c-.699-.894-1.421-1.817-2.074-2.763z" transform="translate(-1766.469 -1982.875)" style="fill:#1e8547"/>
        <path data-name="Path 299" d="M2042.975 2271.762c-1.036.327-2.107.666-3.137 1.107l-.241.1c-.275.12-.56.245-.847.34l.069.215a8.958 8.958 0 0 0 .866-.347l.24-.1c1.02-.437 2.085-.77 3.116-1.1q3.287-1.037 6.577-2.061l-.066-.217q-3.29 1.026-6.577 2.063z" transform="translate(-1842.738 -2051.408)" style="fill:#1e8547"/>
        <path data-name="Path 300" d="m2046.94 2260.152.049.22q4.923-1.111 9.844-2.232l-.05-.219q-4.921 1.12-9.843 2.231z" transform="translate(-1850.14 -2040.762)" style="fill:#1e8547"/>
        <path data-name="Path 301" d="m2031.88 2298.759.078.212 11.521-4.309-.079-.212z" transform="translate(-1836.529 -2073.777)" style="fill:#1e8547"/>
        <path data-name="Rectangle 65" transform="rotate(-22.47 670.574 -376.635)" style="fill:#1e8547" d="M0 0h11.869v.301H0z"/>
        <path data-name="Path 302" d="M1570.65 2127.478c-2.443-1.6-5.811-1.894-7.185-4.7-.459-.939-.609-2.043-1.119-2.949-2.129-3.792-6.291-2.914-9.458-3.313a12.282 12.282 0 0 1-4.921-1.813 4.579 4.579 0 0 0-4.367.045c-1.21.808-1.2 3.215-.481 4.456 2.05 3.534 7.2 4.111 8.241 8.151.369 1.434.077 2.955.263 4.427a8.162 8.162 0 0 0 4.932 6.2 17.725 17.725 0 0 0 7.515.974l8.338.4a7.387 7.387 0 0 0 1.8-6.309 8.414 8.414 0 0 0-3.558-5.569z" transform="translate(-1394.354 -1910.842)" style="fill:#51ba76"/>
        <path data-name="Path 303" d="M1554.94 2134.563c-5.189-2.711-8.433-5.2-9.639-7.373l-.231.128c1.232 2.227 4.511 4.743 9.748 7.479a24.251 24.251 0 0 1 12.317 14.8l.255-.067a24.519 24.519 0 0 0-12.45-14.967z" transform="translate(-1396.563 -1922.611)" style="fill:#41a25b"/>
        <path data-name="Path 304" d="m1542.7 2154.16-.016.263a11.725 11.725 0 0 0 2.564-.123l-.041-.261a11.517 11.517 0 0 1-2.507.121z" transform="translate(-1394.403 -1946.878)" style="fill:#41a25b"/>
        <path data-name="Path 305" d="m1551.51 2166.146.006.264a11.983 11.983 0 0 0 3.175-.5l-.075-.253a11.789 11.789 0 0 1-3.106.489z" transform="translate(-1402.383 -1957.38)" style="fill:#41a25b"/>
        <path data-name="Path 306" d="M1560.092 2117.655a10.84 10.84 0 0 0-.237-1.125l-.255.068a10.687 10.687 0 0 1 .231 1.1c.03.192.055.385.08.577a6.51 6.51 0 0 0 .457 1.951l.239-.113a6.331 6.331 0 0 1-.434-1.873c-.027-.197-.053-.393-.081-.585z" transform="translate(-1409.695 -1912.978)" style="fill:#41a25b"/>
        <path data-name="Path 307" d="m1572.785 2114-.245.1a13.385 13.385 0 0 1 .577 2.731 14.684 14.684 0 0 0 .481 2.448l.25-.084a14.825 14.825 0 0 1-.467-2.406 13.905 13.905 0 0 0-.596-2.789z" transform="translate(-1421.39 -1910.691)" style="fill:#41a25b"/>
        <path data-name="Path 308" d="m1576.42 2185.636.034.262a15.578 15.578 0 0 0 3.176-.741c.13-.044.261-.089.393-.138l-.089-.249a15.541 15.541 0 0 1-3.514.866z" transform="translate(-1424.896 -1974.651)" style="fill:#41a25b"/>
        <path data-name="Path 309" d="m1594.08 2197.309.07.255 3.689-1.02-.07-.254z" transform="translate(-1440.857 -1985.062)" style="fill:#41a25b"/>
        <path data-name="Path 310" d="m1625 2226.163.05.26a61.815 61.815 0 0 1 5.528-.809l-.026-.264c-1.852.187-3.717.46-5.552.813z" transform="translate(-1468.802 -2011.326)" style="fill:#41a25b"/>
        <path data-name="Path 311" d="M1636.436 2247.537c-1.148.114-2.3.237-3.426.366l.03.262c1.124-.129 2.275-.252 3.422-.365a14.068 14.068 0 0 1 3.886-.018l.046-.261a14.8 14.8 0 0 0-3.958.016z" transform="translate(-1476.041 -2031.246)" style="fill:#41a25b"/>
        <path data-name="Path 312" d="m1634.56 2270.163.03.263a27.631 27.631 0 0 1 9.51.219l.061-.257a27.875 27.875 0 0 0-9.601-.225z" transform="translate(-1477.442 -2051.548)" style="fill:#41a25b"/>
        <path data-name="Path 313" d="m1635 2289.316.011.265a48.124 48.124 0 0 1 7.828.333 12.721 12.721 0 0 1 3.244.738l.1-.244a12.922 12.922 0 0 0-3.31-.756 48.345 48.345 0 0 0-7.873-.336z" transform="translate(-1477.839 -2069.104)" style="fill:#41a25b"/>
        <path data-name="Path 314" d="M1655.887 2200.869a118.86 118.86 0 0 1 .47 11.969 16.552 16.552 0 0 0-2.751-.332c-.578-.02-1.155-.009-1.723 0l-6.723.125v.264l6.728-.125c.558-.01 1.136-.021 1.7 0a16.165 16.165 0 0 1 2.863.359l.157.035V2213a121.344 121.344 0 0 0-.469-12.161z" transform="translate(-1487.022 -1989.174)" style="fill:#41a25b"/>
        <path data-name="Path 315" d="m1684.667 2352.67-4.957.316.016.264 4.958-.317a20.758 20.758 0 0 1 4.092.01l.035-.262a20.893 20.893 0 0 0-4.144-.011z" transform="translate(-1518.247 -2126.304)" style="fill:#41a25b"/>
        <path data-name="Path 316" d="M1679.567 2228.731c.138 3.572-1 10.2-1.168 11.162a47.222 47.222 0 0 0-9.869.569l.034.261a46.478 46.478 0 0 1 9.932-.557l.12.011.021-.118c.013-.074 1.347-7.469 1.193-11.338z" transform="translate(-1508.143 -2014.372)" style="fill:#41a25b"/>
        <path data-name="Path 317" d="m1594.417 2118-.257.062c.136.568.321 1.421.518 2.325.321 1.481.686 3.159.942 4.082l.254-.07c-.253-.916-.617-2.59-.938-4.068a132.94 132.94 0 0 0-.519-2.331z" transform="translate(-1440.929 -1914.306)" style="fill:#41a25b"/>
        <path data-name="Path 318" d="m1630.505 2134.52-.255.066a44.356 44.356 0 0 0 2.323 5.925c.289.644.558 1.251.77 1.757l.244-.1a93.994 93.994 0 0 0-.77-1.762 43.91 43.91 0 0 1-2.312-5.886z" transform="translate(-1473.547 -1929.236)" style="fill:#41a25b"/>
        <path data-name="Path 319" d="m1648.22 2138.12-.25.082c.525 1.6 1.325 3.753 2.032 5.65.385 1.031.75 2.015 1.052 2.853l.248-.09c-.3-.839-.669-1.828-1.053-2.856-.706-1.898-1.506-4.043-2.029-5.639z" transform="translate(-1489.561 -1932.49)" style="fill:#41a25b"/>
        <path data-name="Path 320" d="m1678.639 2140.05-.259.05c.522 2.708 1.437 5.945 2.244 8.8.176.625.347 1.23.508 1.808l.254-.07c-.161-.577-.332-1.185-.509-1.809-.801-2.851-1.719-6.083-2.238-8.779z" transform="translate(-1517.045 -1934.234)" style="fill:#41a25b"/>
        <path data-name="Path 321" d="M1703.478 2154.8a67.11 67.11 0 0 1-.666-3.107c-.065-.354-.11-.718-.152-1.072a10.448 10.448 0 0 0-.349-1.888l-.251.08a10.227 10.227 0 0 1 .338 1.841c.043.357.089.727.155 1.086.193 1.058.436 2.125.674 3.121.2.866.412 1.72.623 2.58.289 1.181.588 2.406.857 3.607l.257-.058c-.27-1.21-.569-2.431-.858-3.612a148.47 148.47 0 0 1-.628-2.578z" transform="translate(-1538.446 -1942.079)" style="fill:#41a25b"/>
        <path data-name="Path 322" d="m1725.207 2152-.257.06a115.14 115.14 0 0 1 1.925 11.41c.149 1.129.289 2.195.433 3.138l.261-.04c-.143-.941-.283-2.006-.432-3.133a115.2 115.2 0 0 0-1.93-11.435z" transform="translate(-1559.134 -1945.034)" style="fill:#41a25b"/>
        <path data-name="Path 323" d="m1781 2255.519.2.17c1.234-1.458 2.846-11.355 2.915-11.777l-.261-.042c-.013.102-1.666 10.247-2.854 11.649z" transform="translate(-1609.79 -2028.064)" style="fill:#41a25b"/>
        <path data-name="Path 324" d="m1800.65 2262.514.179.193c1.779-1.646 2.61-11.458 2.644-11.875l-.263-.021c-.01.102-.856 10.127-2.56 11.703z" transform="translate(-1627.55 -2034.336)" style="fill:#41a25b"/>
        <path data-name="Path 325" d="m1825.07 2277.855.2.172c1.795-2.078 2.021-9.793 2.028-10.12l-.264-.007c-.001.079-.234 7.946-1.964 9.955z" transform="translate(-1649.62 -2049.781)" style="fill:#41a25b"/>
        <path data-name="Path 326" d="M1673.686 1770.96a7.159 7.159 0 0 1-2.181-2.222c-.77-1.544-.17-3.376.037-5.089a6.161 6.161 0 0 0-1.007-4.569 9.362 9.362 0 0 0-2.583-1.986c-1.977-1.216-3.96-2.73-4.725-4.922s-.321-4.613-1.192-6.76c-1.108-2.734-4.126-3.3-6.432-4.657-2.406-1.417-3.458-4.286-6.07-5.463-1.828-.825-4.379-.938-5.031 1.412-.621 2.234.806 4.453 1.5 6.667 1.251 3.986-.233 8.124-1.434 11.923-.985 3.116-1.643 6.692.008 9.512 1.561 2.668 4.984 4.264 5.476 7.313.378 2.345-1.174 4.523-1.732 6.832-1.083 4.5 1.715 9.032 5 12.284 4.393 4.349 9.8 7.5 15.145 10.6l1.3-3.436a33.207 33.207 0 0 0 7.75-15.806c.521-2.772.649-5.794-.723-8.257a11.7 11.7 0 0 0-3.106-3.376z" transform="translate(-1485.582 -1567.94)" style="fill:#41a25b"/>
        <path data-name="Path 327" d="M1677.9 1778.385c-2.08-5.706-2.038-9.66-1.994-13.846a43.555 43.555 0 0 0-.787-10.3c-1.979-9.3-9.576-17.086-9.653-17.163l-.192.193c.076.077 7.617 7.806 9.579 17.032a43.38 43.38 0 0 1 .782 10.239c-.045 4.212-.089 8.19 2.01 13.943.827 2.269 1.682 4.306 2.437 6.1 2.653 6.317 4.405 10.489 2.011 16.607l.257.1c2.436-6.221.665-10.436-2.014-16.815-.76-1.791-1.615-3.828-2.436-6.09z" transform="translate(-1505.197 -1570.04)" style="fill:#1e8547"/>
        <path data-name="Path 328" d="m1710.44 1755.77.187.089a11.884 11.884 0 0 0 1.095-3.991l-.206-.018a11.683 11.683 0 0 1-1.076 3.92z" transform="translate(-1546.02 -1583.389)" style="fill:#1e8547"/>
        <path data-name="Path 329" d="m1703.16 1746.592.2.038.727-3.933-.2-.037z" transform="translate(-1539.441 -1575.083)" style="fill:#1e8547"/>
        <path data-name="Path 330" d="m1684.78 1738.252.192.063a17.4 17.4 0 0 0 .569-2.289l-.2-.037a17.406 17.406 0 0 1-.558 2.262z" transform="translate(-1522.829 -1569.055)" style="fill:#1e8547"/>
        <path data-name="Path 331" d="m1652.88 1755.923.045.2a6.412 6.412 0 0 1 2.322.067l.77.117.031-.2-.77-.117a6.562 6.562 0 0 0-2.398-.067z" transform="translate(-1493.999 -1586.99)" style="fill:#1e8547"/>
        <path data-name="Path 332" d="M1652.21 1773.138a38.2 38.2 0 0 0 4.951.874l.022-.206a38.131 38.131 0 0 1-4.924-.866z" transform="translate(-1493.393 -1602.45)" style="fill:#1e8547"/>
        <path data-name="Path 333" d="M1659.148 1787.644c-.338-.04-.674-.1-1.006-.156l-1.776-.308-.036.205 1.776.308c.331.058.674.117 1.018.157a18.817 18.817 0 0 0 2.5.065v-.207a18.11 18.11 0 0 1-2.476-.064z" transform="translate(-1497.117 -1615.319)" style="fill:#1e8547"/>
        <path data-name="Path 334" d="m1725.62 1778.118.187.089a24.05 24.05 0 0 0 1.587-4.426l-.2-.05a23.822 23.822 0 0 1-1.574 4.387z" transform="translate(-1559.74 -1603.164)" style="fill:#1e8547"/>
        <path data-name="Path 335" d="m1731 1786.423.175.111a15.284 15.284 0 0 0 1.925-4.5l-.2-.05a15.068 15.068 0 0 1-1.9 4.439z" transform="translate(-1564.602 -1610.62)" style="fill:#1e8547"/>
        <path data-name="Path 336" d="m1742.22 1800.508.185.1a42.532 42.532 0 0 0 2.213-5.2l-.193-.068a42.186 42.186 0 0 1-2.205 5.168z" transform="translate(-1574.742 -1622.694)" style="fill:#1e8547"/>
        <path data-name="Path 337" d="M1755.712 1808.18c-.1.273-.211.555-.341.819s-.272.5-.417.739l-.683 1.132c-.42.7-.854 1.416-1.291 2.117l.175.11c.439-.7.873-1.422 1.293-2.117l.68-1.126c.149-.248.3-.5.428-.76s.242-.559.348-.836l.637-1.672-.192-.074z" transform="translate(-1584.467 -1632.789)" style="fill:#1e8547"/>
        <path data-name="Path 338" d="M1765.095 1829.193c-.466.637-.947 1.3-1.4 1.953l.169.118c.457-.655.937-1.313 1.4-1.949a36.6 36.6 0 0 0 3.89-6.149l-.193-.087a36.286 36.286 0 0 1-3.866 6.114z" transform="translate(-1594.146 -1647.765)" style="fill:#1e8547"/>
        <path data-name="Path 339" d="m1768.635 1839.735-.141.149a6.131 6.131 0 0 0-.884 1.089l.178.1a6.115 6.115 0 0 1 .855-1.051l.142-.15a25.536 25.536 0 0 0 4.8-7.686l-.192-.081a25.306 25.306 0 0 1-4.758 7.63z" transform="translate(-1597.689 -1655.926)" style="fill:#1e8547"/>
        <path data-name="Path 340" d="M1776.88 1870.917a53.05 53.05 0 0 1-4.57 5.449l.146.146a53.346 53.346 0 0 0 4.588-5.469 14.8 14.8 0 0 0 2.006-3.142l-.193-.081a14.494 14.494 0 0 1-1.977 3.097z" transform="translate(-1601.937 -1688.2)" style="fill:#1e8547"/>
        <path data-name="Path 341" d="m1774.623 1912.987-.157.177c-.236.268-.481.547-.746.793l.14.152c.272-.254.521-.535.761-.807l.156-.177a44.358 44.358 0 0 0 6-7.879l-.182-.1a44.284 44.284 0 0 1-5.972 7.841z" transform="translate(-1603.211 -1721.937)" style="fill:#1e8547"/>
        <path data-name="Path 342" d="M1781.266 1925.293a38.359 38.359 0 0 1-6.846 8.216l.139.154a38.558 38.558 0 0 0 6.882-8.26 7.261 7.261 0 0 0 .6-1.116l-.193-.077a7.139 7.139 0 0 1-.582 1.083z" transform="translate(-1603.844 -1739.163)" style="fill:#1e8547"/>
        <path data-name="Path 343" d="M1784.673 1958.945c-.633.93-1.421 2.085-2.248 3.14-.686.877-1.433 1.732-2.155 2.553-.962 1.1-1.953 2.231-2.819 3.435l.168.121c.859-1.2 1.849-2.327 2.807-3.42.724-.827 1.472-1.681 2.162-2.562.83-1.058 1.621-2.219 2.257-3.15a20.657 20.657 0 0 0 2.579-4.6l-.193-.069a20.574 20.574 0 0 1-2.558 4.552z" transform="translate(-1606.582 -1766.439)" style="fill:#1e8547"/>
        <path data-name="Path 344" d="M1799.168 1998.38c-1.058 1.449-2.213 2.864-3.332 4.234l-1.286 1.575.16.131 1.286-1.574c1.119-1.37 2.275-2.79 3.339-4.241a50.973 50.973 0 0 0 6.21-11.229l-.193-.077a50.741 50.741 0 0 1-6.184 11.181z" transform="translate(-1622.037 -1796.092)" style="fill:#1e8547"/>
        <path data-name="Path 345" d="M1805.53 2093.16a120.984 120.984 0 0 1-6.511 8.043c-.136.153-.083.261-.053.3a.134.134 0 0 0 .168.04.157.157 0 0 0 .041-.028.151.151 0 0 0 .054-.145l-.017-.073a122.718 122.718 0 0 0 6.485-8.013zm-6.424 8.222-.078.036s-.01-.05.018-.062a.072.072 0 0 1 .06 0v.026z" transform="translate(-1625.995 -1891.856)" style="fill:#1e8547"/>
        <path data-name="Path 346" d="m1819.83 2122.63.16.132a204.41 204.41 0 0 0 8.666-11.291l-.168-.12a206.357 206.357 0 0 1-8.658 11.279z" transform="translate(-1644.884 -1908.296)" style="fill:#1e8547"/>
        <path data-name="Path 347" d="m1831.89 2157.547.151.141a102.677 102.677 0 0 0 8.592-10.564l-.168-.124a102.5 102.5 0 0 1-8.575 10.547z" transform="translate(-1655.783 -1940.515)" style="fill:#1e8547"/>
        <path data-name="Path 348" d="M1706.705 2181.756c-.783-.127-9.649-1.646-14.576-5.752l-.129.158c5.178 4.314 14.638 5.792 14.733 5.806l.055.009.037-.042a132.795 132.795 0 0 0 9.623-12.028l-.171-.116a131.645 131.645 0 0 1-9.572 11.965z" transform="translate(-1529.355 -1961.113)" style="fill:#1e8547"/>
        <path data-name="Path 349" d="M1677.09 2072.75a82.129 82.129 0 0 0 9.829 2.162l.032-.2a82.16 82.16 0 0 1-9.8-2.156z" transform="translate(-1515.879 -1873.229)" style="fill:#1e8547"/>
        <path data-name="Path 350" d="M1705.14 2110.688a31.832 31.832 0 0 0 7.759 2.481l.037-.2a31.573 31.573 0 0 1-7.709-2.464z" transform="translate(-1541.23 -1907.527)" style="fill:#1e8547"/>
        <path data-name="Path 351" d="M1709.76 2137.263a59.427 59.427 0 0 0 8.3 2.354l.045-.2a59.177 59.177 0 0 1-8.269-2.345z" transform="translate(-1545.406 -1931.541)" style="fill:#1e8547"/>
        <path data-name="Path 352" d="M1708.92 2148.177a30.275 30.275 0 0 0 8.641 2.911l.035-.2a30.062 30.062 0 0 1-8.585-2.893z" transform="translate(-1544.647 -1941.41)" style="fill:#1e8547"/>
        <path data-name="Path 353" d="M1695.94 2179.506a55.064 55.064 0 0 0 11.924 4.458l.047-.2a54.951 54.951 0 0 1-11.879-4.442z" transform="translate(-1532.915 -1969.725)" style="fill:#1e8547"/>
        <path data-name="Path 354" d="m1689.746 2195.55-.1.184 2.14 1.124c3.641 1.914 7.409 3.892 11.547 4.634l.036-.2c-4.11-.736-7.861-2.707-11.489-4.613z" transform="translate(-1527.231 -1984.393)" style="fill:#1e8547"/>
        <path data-name="Path 355" d="M1718.267 2200.925a47.338 47.338 0 0 1-14.076-5.5l-.111.175a47.635 47.635 0 0 0 14.2 5.542l.056.012.042-.041a134.986 134.986 0 0 0 11.27-13.231l-.168-.12a134.016 134.016 0 0 1-11.213 13.163z" transform="translate(-1540.272 -1977.353)" style="fill:#1e8547"/>
        <path data-name="Path 356" d="M1644.22 1997.028a37.349 37.349 0 0 0 10.532 3.105l.019-.206a37.12 37.12 0 0 1-10.463-3.087z" transform="translate(-1486.172 -1804.805)" style="fill:#1e8547"/>
        <path data-name="Path 357" d="m1643.127 2006.69-.107.178c1.882 1.134 7.839 3.35 10.724 3.288v-.208c-2.856.062-8.752-2.135-10.617-3.258z" transform="translate(-1485.088 -1813.707)" style="fill:#1e8547"/>
        <path data-name="Path 358" d="M1647.577 1963.188a1.954 1.954 0 0 1-.75-.348l-.137.154a2.106 2.106 0 0 0 .827.393c.409.123 1.661.534 2.87.93s2.465.809 2.876.933l.061-.2c-.41-.124-1.662-.535-2.872-.932s-2.463-.805-2.875-.93z" transform="translate(-1488.405 -1774.076)" style="fill:#1e8547"/>
        <path data-name="Path 359" d="M1666.5 1812.626c1.916.238 3.865.4 5.8.471l.008-.207a68.239 68.239 0 0 1-5.774-.469z" transform="translate(-1506.308 -1638.131)" style="fill:#1e8547"/>
        <path data-name="Path 360" d="M1676.917 1842.313c-1.086-.109-2.213-.22-3.3-.433l-.039.2c1.1.214 2.226.326 3.316.435a21.028 21.028 0 0 0 3.47.153l-.01-.2a21.429 21.429 0 0 1-3.437-.155z" transform="translate(-1512.707 -1664.756)" style="fill:#1e8547"/>
        <path data-name="Path 361" d="m1676.342 1864.61-1.378-.3-.044.2 1.378.3a14.417 14.417 0 0 0 6.232.419l-.046-.2a14.237 14.237 0 0 1-6.142-.419z" transform="translate(-1513.918 -1685.027)" style="fill:#1e8547"/>
        <path data-name="Path 362" d="m1672.256 1879.92-.1.182a22.281 22.281 0 0 0 8.9 2.578v-.207a22.057 22.057 0 0 1-8.8-2.553z" transform="translate(-1511.424 -1699.135)" style="fill:#1e8547"/>
        <path data-name="Path 363" d="m1860.19 2244.715.129.162q.385-.31.783-.666c4.084-3.651 8.747-10.489 8.8-10.565l-.171-.116c-.055.078-5.32 7.799-9.541 11.185z" transform="translate(-1681.36 -2018.719)" style="fill:#1e8547"/>
        <path data-name="Path 364" d="m1869.33 2253.335.129.162c.257-.206.52-.429.782-.665 4.084-3.651 8.748-10.489 8.8-10.566l-.171-.116c-.055.081-5.32 7.803-9.54 11.185z" transform="translate(-1689.621 -2026.509)" style="fill:#1e8547"/>
        <path data-name="Path 365" d="M1819.566 1840.437c-.289-1.673.192-3.4-.011-5.081a10.612 10.612 0 0 0-2.195-4.792 26.909 26.909 0 0 1-3.464-5.279c-.94-2.274-.584-4.633-1.114-6.971a7.517 7.517 0 0 0-2.7-4.529 3.878 3.878 0 0 0-2.261-.816c-2.184.02-3.175 2.385-3.674 4.167a15.28 15.28 0 0 0 .036 6.563 13.006 13.006 0 0 1 .216 4.33c-.577 3.262-3.452 5.525-5.322 8.256a6.881 6.881 0 0 0-1.443 4.56c.215 1.88 1.526 3.313 2.188 5.025.77 2 .139 4.042-.764 5.881-.989 2.013-2.276 4.13-1.852 6.466a13 13 0 0 0 2.975 5.485 25.9 25.9 0 0 0 4.54 4.514c.344.289 4.272-2.021 4.709-1.924a.973.973 0 0 0 1.124-.5l5.209.266a30.128 30.128 0 0 0 6.384-9.059 13.707 13.707 0 0 0 .176-10.837c-.909-1.924-2.399-3.626-2.757-5.725z" transform="translate(-1624.358 -1638.627)" style="fill:#1e8547"/>
        <path data-name="Path 366" d="M1893.684 1812.388c1.931 3.9 2.565 11.77 1.885 23.4-.072 1.232-.166 2.5-.255 3.721-.577 7.92-5.537 18.957-1.389 26.226l.393.065c-4.1-7.183.729-18.4 1.306-26.27.089-1.224.183-2.491.255-3.725.684-11.686.04-19.612-1.917-23.558z" transform="translate(-1710.367 -1637.977)" style="fill:#106f39"/>
        <path data-name="Path 367" d="M1828.414 2223.083c-5.284-4.138-8.992-6.707-11.667-8.083l-.107.208c2.671 1.375 6.384 3.945 11.684 8.1l.052.042.063-.025c.08-.031 8.013-3.2 12.618-8.032l-.168-.161c-4.359 4.568-11.727 7.64-12.475 7.951z" transform="translate(-1642.001 -2001.972)" style="fill:#106f39"/>
        <path data-name="Path 368" d="M1832.242 2198.216a261.102 261.102 0 0 1-3.175-2.2c-2.651-1.853-5.656-3.954-7.351-4.915l-.115.2c1.685.956 4.686 3.053 7.333 4.908 1.208.844 2.348 1.64 3.235 2.239l.055.037.06-.028c.085-.041 8.516-4.072 13.148-8.531l-.162-.168c-4.401 4.234-12.262 8.088-13.028 8.458z" transform="translate(-1646.484 -1979.16)" style="fill:#106f39"/>
        <path data-name="Path 369" d="M1837.511 2166.417a57.542 57.542 0 0 0-9.393-7.465l-.128.192a57.241 57.241 0 0 1 9.414 7.494l.06.06.075-.037c.084-.041 8.416-4.175 12.763-9.32l-.178-.151c-4.096 4.85-11.771 8.802-12.613 9.227z" transform="translate(-1652.259 -1949.725)" style="fill:#106f39"/>
        <path data-name="Path 370" d="M1798.36 2259.21c.037.025 6.345 3.389 9.227 5.87l.036-.235c-2.887-2.488-9.094-5.8-9.132-5.826z" transform="translate(-1625.48 -2041.756)" style="fill:#106f39"/>
        <path data-name="Path 371" d="m1797.212 2275.85-.132.192c.037.025 6.894 3.519 9.776 6l-.087-.273c-2.893-2.489-9.521-5.894-9.557-5.919z" transform="translate(-1624.323 -2056.967)" style="fill:#106f39"/>
        <path data-name="Path 372" d="M1827.25 2145.037a67.032 67.032 0 0 0-10-7.217l-.119.2a66.464 66.464 0 0 1 10.02 7.235l.053.047.065-.026c.086-.033 8.587-3.359 12.191-7.4l-.174-.155c-3.404 3.816-11.237 6.998-12.036 7.316z" transform="translate(-1642.444 -1932.128)" style="fill:#106f39"/>
        <path data-name="Path 373" d="M1815.707 2120.907a55.72 55.72 0 0 0-11.182-7.417l-.1.208a55.5 55.5 0 0 1 11.195 7.437l.059.05.069-.035c.075-.037 7.571-3.778 10.953-7.43l-.171-.159c-3.185 3.439-10.06 6.961-10.823 7.346z" transform="translate(-1630.957 -1910.23)" style="fill:#106f39"/>
        <path data-name="Path 374" d="M1817.7 2080.2a98.29 98.29 0 0 0-10.979-7.629l-.119.2a98.059 98.059 0 0 1 11.008 7.656l.057.045.065-.03c.328-.153 8.065-3.773 10.431-7.305l-.192-.13c-2.22 3.308-9.503 6.826-10.271 7.193z" transform="translate(-1632.927 -1873.247)" style="fill:#106f39"/>
        <path data-name="Path 375" d="M1834.031 2039.393a62.442 62.442 0 0 0-9.407-7.289l-.124.192a62.145 62.145 0 0 1 9.43 7.313l.059.056.072-.036c.08-.038 7.952-3.908 10.036-8.694l-.214-.1c-1.943 4.481-9.058 8.159-9.852 8.558z" transform="translate(-1649.104 -1835.533)" style="fill:#106f39"/>
        <path data-name="Path 376" d="M1854.977 1994.555a52.061 52.061 0 0 0-7.473-6.387l-.124.193a52.314 52.314 0 0 1 7.506 6.427l.071.075.083-.063c.058-.043 5.74-4.436 7.128-9.538l-.225-.062c-1.28 4.7-6.266 8.8-6.966 9.355z" transform="translate(-1669.783 -1794.285)" style="fill:#106f39"/>
        <path data-name="Path 377" d="m1871.644 1970.64-.144.182a34.772 34.772 0 0 1 5.485 5.581l.184-.143a34.966 34.966 0 0 0-5.525-5.62z" transform="translate(-1691.582 -1781.126)" style="fill:#106f39"/>
        <path data-name="Path 378" d="m1868.141 1905.55-.141.186a25.475 25.475 0 0 1 5.946 5.975l.192-.129a25.659 25.659 0 0 0-5.997-6.032z" transform="translate(-1688.419 -1722.299)" style="fill:#106f39"/>
        <path data-name="Path 379" d="m1865.994 1890.16-.144.183a37.453 37.453 0 0 1 6.14 5.671l.179-.15a37.64 37.64 0 0 0-6.175-5.704z" transform="translate(-1686.476 -1708.39)" style="fill:#106f39"/>
        <path data-name="Path 380" d="m1870.441 1852-.151.178a49.356 49.356 0 0 1 5.552 5.3l.175-.154a49.419 49.419 0 0 0-5.576-5.324z" transform="translate(-1690.488 -1673.902)" style="fill:#106f39"/>
        <path data-name="Path 381" d="m1884.127 1824.09-.127.192a13.723 13.723 0 0 1 2.2 1.834c.417.4.847.821 1.4 1.282l.149-.179a22.485 22.485 0 0 1-1.386-1.271 14.123 14.123 0 0 0-2.236-1.858z" transform="translate(-1702.879 -1648.677)" style="fill:#106f39"/>
        <path data-name="Path 382" d="m1919 1821.086.219.08a18.957 18.957 0 0 0 .737-2.578l-.228-.048a18.47 18.47 0 0 1-.728 2.546z" transform="translate(-1734.511 -1643.661)" style="fill:#106f39"/>
        <path data-name="Path 383" d="m1920.86 1827.434.2.115a20.472 20.472 0 0 0 1.427-3.129l-.219-.079a20.2 20.2 0 0 1-1.408 3.093z" transform="translate(-1736.192 -1648.904)" style="fill:#106f39"/>
        <path data-name="Path 384" d="m1928 1862.832.193.128a46.494 46.494 0 0 0 2.694-4.7l-.208-.1a46.274 46.274 0 0 1-2.679 4.672z" transform="translate(-1742.645 -1679.469)" style="fill:#106f39"/>
        <path data-name="Path 385" d="m1930 1903.235.149.179a15.19 15.19 0 0 0 3.19-4.973l-.224-.062a15.072 15.072 0 0 1-3.115 4.856z" transform="translate(-1744.453 -1715.819)" style="fill:#106f39"/>
        <path data-name="Path 386" d="M1930.962 1925.3a5.234 5.234 0 0 1-1.212 1.265l.127.193a5.486 5.486 0 0 0 1.27-1.318 30.948 30.948 0 0 0 2.22-3.175l-.2-.116a30.052 30.052 0 0 1-2.205 3.151z" transform="translate(-1744.227 -1737.302)" style="fill:#106f39"/>
        <path data-name="Path 387" d="M1931.149 1964.09a7.646 7.646 0 0 1-1.449 1.433l.132.192a7.72 7.72 0 0 0 1.5-1.474 23.021 23.021 0 0 0 3.485-5.225l-.213-.1a22.8 22.8 0 0 1-3.455 5.174z" transform="translate(-1744.182 -1770.533)" style="fill:#106f39"/>
        <path data-name="Path 388" d="M1823.1 2068.565c-4.1-3.464-10.384-7.663-10.447-7.7l-.129.192c.064.042 6.4 4.27 10.489 7.74l.06.051.07-.037c.08-.043 8.05-4.33 10.456-7.558l-.187-.139c-2.261 3.021-9.525 7.021-10.312 7.451z" transform="translate(-1638.277 -1862.664)" style="fill:#106f39"/>
        <path data-name="Path 389" d="m1873.207 1958.45-.127.192a34.69 34.69 0 0 1 5.4 4.908l.174-.155a34.928 34.928 0 0 0-5.447-4.945z" transform="translate(-1693.01 -1770.109)" style="fill:#106f39"/>
        <path data-name="Path 390" d="M1907.7 2046.451a6.3 6.3 0 0 1 .513-2.846 8.848 8.848 0 0 0 .707-2.818 2.643 2.643 0 0 0-1.286-2.447 3.367 3.367 0 0 0-3.873 1.443c-1.624 2.827-2.813 2.576-4.2 3.115a4.013 4.013 0 0 0-2.544 2.653 15.643 15.643 0 0 0-.375 2.734 6.446 6.446 0 0 1-2.514 4.171c-1.184.873-2.722 1.391-3.455 2.667a4.2 4.2 0 0 0-.453 2.3 20.894 20.894 0 0 0 1.52 5.475 12.825 12.825 0 0 1-.147 7.141l4.1 2.064c4.1-1.244 9.447-3.753 9.623-8.752.1-2.841-.811-5.638 1.135-8.1.75-.948 1.8-1.7 2.249-2.818a5.5 5.5 0 0 0-.375-4.026 7.963 7.963 0 0 1-.625-1.956z" transform="translate(-1708.497 -1842.13)" style="fill:#51ba76"/>
        <path data-name="Path 391" d="M1940.086 2050.77c-.471 1.694-.916 3.294-1.476 4.795a40.9 40.9 0 0 1-2.608 5.554 34.217 34.217 0 0 0-3.9 10.346l.217.048a34.052 34.052 0 0 1 3.88-10.288 40.873 40.873 0 0 0 2.621-5.581c.564-1.51 1.01-3.116 1.482-4.811 1.142-4.106 2.323-8.352 5.267-11.242l-.156-.16c-2.989 2.928-4.181 7.204-5.327 11.339z" transform="translate(-1746.351 -1843.296)" style="fill:#41a25b"/>
        <path data-name="Path 392" d="M1994.118 2186.923c-.639.352-1.243.685-1.848 1.008l.079.148c.605-.323 1.21-.656 1.849-1.008a43.011 43.011 0 0 1 6.736-3.231l-.053-.159a43.217 43.217 0 0 0-6.763 3.242z" transform="translate(-1800.731 -1973.666)" style="fill:#41a25b"/>
        <path data-name="Path 393" d="M1958.231 2130.045a3.108 3.108 0 0 1-.559-1.045l-.162.043a3.287 3.287 0 0 0 .584 1.1l.075.106a22.4 22.4 0 0 1 3.164 7.011l.161-.044a22.531 22.531 0 0 0-3.188-7.064z" transform="translate(-1769.315 -1924.247)" style="fill:#41a25b"/>
        <path data-name="Path 394" d="M1981.08 2091.115a61.731 61.731 0 0 1 2.9 7.632l.164-.035a61.9 61.9 0 0 0-2.917-7.672z" transform="translate(-1790.617 -1889.94)" style="fill:#41a25b"/>
        <path data-name="Path 395" d="M1989.32 2086.473a15.543 15.543 0 0 1 2.724 5.881l.166-.026a15.7 15.7 0 0 0-2.751-5.949z" transform="translate(-1798.064 -1885.729)" style="fill:#41a25b"/>
        <path data-name="Path 396" d="M2020.636 2122.542c-.849.4-1.726.8-2.566 1.268l.081.146c.835-.461 1.71-.866 2.557-1.262s1.726-.8 2.566-1.267l-.081-.147c-.835.462-1.71.869-2.557 1.262z" transform="translate(-1824.048 -1917.27)" style="fill:#41a25b"/>
        <path data-name="Path 397" d="M2034.511 2076.173c-.747.429-1.452.834-2.181 1.267l.086.144c.728-.433 1.433-.837 2.179-1.266.826-.474 1.679-.962 2.565-1.495l-.086-.144c-.89.532-1.743 1.021-2.563 1.494z" transform="translate(-1836.936 -1875.154)" style="fill:#41a25b"/>
        <path data-name="Path 398" d="m2017.61 2071.83-.16.048a10.588 10.588 0 0 0 .793 1.925c.246.464.449.859.6 1.175l.15-.073a38.01 38.01 0 0 0-.605-1.181 10.488 10.488 0 0 1-.778-1.894z" transform="translate(-1823.488 -1872.579)" style="fill:#41a25b"/>
        <path data-name="Path 399" d="M2045.048 2042.157h.038c0-.011-.006-.063-.011-.116l-.012-.111h-.166a12.212 12.212 0 0 0 .156 2.983l.165-.03a12.178 12.178 0 0 1-.17-2.726z" transform="translate(-1848.266 -1845.556)" style="fill:#41a25b"/>
        <path data-name="Path 400" d="M2046.577 2054.905a.907.907 0 0 0-.487.562l.165.029c.034-.193.226-.336.409-.448a9.862 9.862 0 0 1 2.978-1.384l-.03-.165a10.063 10.063 0 0 0-3.035 1.406z" transform="translate(-1849.372 -1856.013)" style="fill:#41a25b"/>
        <path data-name="Path 401" d="m2036.3 2066.521.106.13a17.645 17.645 0 0 1 4.575-2.715l-.063-.155a17.838 17.838 0 0 0-4.618 2.74z" transform="translate(-1840.524 -1865.303)" style="fill:#41a25b"/>
        <path data-name="Path 402" d="M2028.53 2057.837a10.108 10.108 0 0 0 .8 3.226l.15-.073a10.058 10.058 0 0 1-.787-3.17z" transform="translate(-1833.501 -1859.917)" style="fill:#41a25b"/>
        <path data-name="Path 403" d="M2038.4 2046.26h-.167a8.764 8.764 0 0 0 .443 3.17l.159-.052a8.633 8.633 0 0 1-.435-3.118z" transform="translate(-1842.269 -1849.469)" style="fill:#41a25b"/>
        <path data-name="Path 404" d="m2042.73 2058.612.1.133a16.142 16.142 0 0 1 3.871-2.057l-.058-.158a16.444 16.444 0 0 0-3.913 2.082z" transform="translate(-1846.335 -1858.751)" style="fill:#41a25b"/>
        <path data-name="Path 405" d="m2011.57 2137.09.1.134a32.14 32.14 0 0 1 5.979-3.512l-.068-.152a32.265 32.265 0 0 0-6.011 3.53z" transform="translate(-1818.173 -1928.368)" style="fill:#41a25b"/>
        <path data-name="Path 406" d="M2002.529 2165.022a3.631 3.631 0 0 0-.979.752l.129.107a3.4 3.4 0 0 1 .935-.715 35.761 35.761 0 0 1 6.888-3.148l-.052-.159a35.929 35.929 0 0 0-6.921 3.163z" transform="translate(-1809.118 -1953.946)" style="fill:#41a25b"/>
        <path data-name="Path 407" d="m1971.6 2239.8.078.148a42.823 42.823 0 0 1 7.217-3.054l-.049-.16a43.008 43.008 0 0 0-7.246 3.066z" transform="translate(-1782.05 -2021.611)" style="fill:#41a25b"/>
        <path data-name="Path 408" d="M1964.649 2251.676a14.016 14.016 0 0 0-3.409 1.787l.1.133a13.978 13.978 0 0 1 3.368-1.764l4.695-1.937-.063-.155z" transform="translate(-1772.687 -2033.369)" style="fill:#41a25b"/>
        <path data-name="Path 409" d="m1954.38 2269.808.083.145a46.553 46.553 0 0 1 8.8-3.408l-.03-.165a47.13 47.13 0 0 0-8.853 3.428z" transform="translate(-1766.487 -2048.408)" style="fill:#41a25b"/>
        <path data-name="Path 410" d="M1953.958 2304.232a41.723 41.723 0 0 0-8.6 1.952l.061.156a41.576 41.576 0 0 1 8.564-1.943c.4-.062.782-.121 1.155-.182l-.027-.166c-.372.062-.759.122-1.153.183z" transform="translate(-1758.335 -2082.453)" style="fill:#41a25b"/>
        <path data-name="Path 411" d="M1948.866 2324.045a67.227 67.227 0 0 0-9.266 1.947l.054.159a67.011 67.011 0 0 1 9.238-1.94l.519-.084-.027-.166z" transform="translate(-1753.129 -2100.447)" style="fill:#41a25b"/>
        <path data-name="Path 412" d="M1941.456 2340.375c-1.8.272-3.667.553-4.636.779l.038.163c.962-.223 2.824-.5 4.619-.776s3.667-.552 4.636-.779l-.037-.163c-.959.224-2.82.501-4.62.776z" transform="translate(-1750.616 -2114.582)" style="fill:#41a25b"/>
        <path data-name="Path 413" d="M1940.38 2178.367a208.349 208.349 0 0 1 2.964 8.729l.159-.05a207.235 207.235 0 0 0-2.966-8.736z" transform="translate(-1753.834 -1968.812)" style="fill:#41a25b"/>
        <path data-name="Path 414" d="m1956.175 2141-.155.063c.371.912.858 1.846 1.33 2.748a16.132 16.132 0 0 1 2.117 5.631l.166-.016a16.161 16.161 0 0 0-2.132-5.692c-.472-.906-.957-1.834-1.326-2.734z" transform="translate(-1767.969 -1935.093)" style="fill:#41a25b"/>
        <path data-name="Path 415" d="M1948.27 2165.536a17.162 17.162 0 0 1 2.992 8.378l.167-.013a17.321 17.321 0 0 0-3.022-8.461z" transform="translate(-1760.964 -1957.181)" style="fill:#41a25b"/>
        <path data-name="Path 416" d="M1932.015 2192.464c-.115-.289-.231-.577-.339-.866a42.711 42.711 0 0 1-1.412-4.878l-.164.039a42.64 42.64 0 0 0 1.419 4.9c.109.289.224.577.341.866.16.4.324.81.467 1.22a13.424 13.424 0 0 1 .639 2.791l.166-.019a13.581 13.581 0 0 0-.647-2.825c-.147-.415-.312-.829-.47-1.228z" transform="translate(-1744.543 -1976.413)" style="fill:#41a25b"/>
        <path data-name="Path 417" d="M1916.454 2207.072c-.385-1.549-.815-3.143-1.226-4.684s-.837-3.131-1.225-4.677l-.163.042c.385 1.547.814 3.14 1.226 4.679s.837 3.134 1.226 4.682c.13.518.219 1.1.323 1.773.06.385.125.814.207 1.284l.164-.029c-.081-.47-.146-.893-.206-1.281-.105-.679-.195-1.261-.326-1.789z" transform="translate(-1729.848 -1986.346)" style="fill:#41a25b"/>
        <path data-name="Path 418" d="M1729.25 2392.091a8.063 8.063 0 0 0 8.057 8.069h18.142a8.062 8.062 0 0 0 8.057-8.069v-24.911h-34.256z" transform="translate(-1563.02 -2139.508)" style="fill:#fbd900"/>
        <path data-name="Path 419" d="M1734.964 2387.82c-2.609 0-4.724 2.569-4.724 2.569s2.117 2.57 4.724 2.57 4.724-2.57 4.724-2.57-2.116-2.569-4.724-2.569z" transform="translate(-1563.915 -2158.162)" style="fill:#fff"/>
        <path data-name="Path 420" d="M1862.884 2387.82c-2.609 0-4.724 2.569-4.724 2.569s2.117 2.57 4.724 2.57 4.724-2.57 4.724-2.57-2.115-2.569-4.724-2.569z" transform="translate(-1679.526 -2158.162)" style="fill:#fff"/>
        <path data-name="Path 421" d="M1989.493 2387.82c-2.609 0-4.723 2.569-4.723 2.569s2.117 2.57 4.723 2.57 4.724-2.57 4.724-2.57-2.112-2.569-4.724-2.569z" transform="translate(-1793.952 -2158.162)" style="fill:#fff"/>
        <path data-name="Path 422" d="M1829.814 2402.39a1.4 1.4 0 1 0 1.4 1.4 1.4 1.4 0 0 0-1.4-1.4z" transform="translate(-1652.638 -2171.33)" style="fill:#fff"/>
        <path data-name="Path 423" d="M1959.455 2402.39a1.4 1.4 0 1 0 1.4 1.4 1.4 1.4 0 0 0-1.4-1.4z" transform="translate(-1769.804 -2171.33)" style="fill:#fff"/>
        <g data-name="Group 25" style="opacity:.5">
            <path data-name="Path 424" d="M1755.777 2382.174c-1.474 13.289-26.527 9.921-26.527 9.921a8.063 8.063 0 0 0 8.057 8.07h18.142a8.063 8.063 0 0 0 8.057-8.07v-24.915h-7.241a78.7 78.7 0 0 1-.488 14.994z" transform="translate(-1563.02 -2139.508)" style="fill:#ff8d00"/>
        </g>
    </g>
</svg>
